<?xml version="1.0" standalone="no"?><!DOCTYPE svg PUBLIC "-//W3C//DTD SVG 1.1//EN" "http://www.w3.org/Graphics/SVG/1.1/DTD/svg11.dtd"><svg t="1705761983037" class="icon" viewBox="0 0 1024 1024" version="1.1" xmlns="http://www.w3.org/2000/svg" p-id="2613" xmlns:xlink="http://www.w3.org/1999/xlink" width="200" height="200"><path d="M851.3024 479.3856H167.5264a30.72 30.72 0 0 0-30.72 30.72v318.7712A98.7136 98.7136 0 0 0 235.52 927.488h547.84a98.7136 98.7136 0 0 0 98.56-98.6112V510.1056a30.72 30.72 0 0 0-30.6176-30.72z m-30.72 349.4912a37.1712 37.1712 0 0 1-37.12 37.1712h-135.5264v-131.0208a30.72 30.72 0 0 0-61.44 0v131.0208H428.5952v-131.0208a30.72 30.72 0 0 0-61.44 0v131.0208H235.52a37.2224 37.2224 0 0 1-37.1712-37.1712v-288.0512h622.2336z" fill="#F39800" p-id="2614"></path><path d="M918.3744 541.2864H100.4544a30.72 30.72 0 0 1-30.72-30.72V380.16a92.16 92.16 0 0 1 92.16-92.16H388.608V159.3856a64.0512 64.0512 0 0 1 64-63.9488h113.664a64 64 0 0 1 63.9488 63.9488v128.8192h226.9184a92.16 92.16 0 0 1 92.16 92.16v130.2016a30.72 30.72 0 0 1-30.9248 30.72z m-787.2-61.44h756.48V380.16a30.72 30.72 0 0 0-30.72-30.72h-257.4336a30.72 30.72 0 0 1-30.72-30.72V159.3856a2.5088 2.5088 0 0 0-2.5088-2.5088H452.608a2.5088 2.5088 0 0 0-2.56 2.5088v159.5392a30.72 30.72 0 0 1-30.72 30.72H161.6896a30.72 30.72 0 0 0-30.72 30.72z" fill="#00A0E9" p-id="2615"></path></svg>