<?xml version="1.0" standalone="no"?><!DOCTYPE svg PUBLIC "-//W3C//DTD SVG 1.1//EN" "http://www.w3.org/Graphics/SVG/1.1/DTD/svg11.dtd"><svg t="1705761922042" class="icon" viewBox="0 0 1024 1024" version="1.1" xmlns="http://www.w3.org/2000/svg" p-id="1576" xmlns:xlink="http://www.w3.org/1999/xlink" width="200" height="200"><path d="M506.88 856.7296c-58.7264 0-121.1392-1.024-183.4496-4.0448a301.2096 301.2096 0 0 1-59.1872-9.5232c-38.912-9.7792-58.0096-35.84-56.7808-76.8a417.3312 417.3312 0 0 1 15.36-108.0832c25.6-86.6304 79.7184-147.5584 161.1776-181.4016a182.7328 182.7328 0 0 1-16.7424-21.5552 204.3392 204.3392 0 0 1-25.6-162.3552 182.528 182.528 0 0 1 93.952-118.5792 167.8848 167.8848 0 0 1 204.8 44.3904c51.712 63.3344 61.44 136.3968 28.8256 211.3536a199.68 199.68 0 0 1-26.7264 45.1072c56.064 22.272 98.56 56.32 129.3824 104.0384a283.4432 283.4432 0 0 1 42.1888 110.4384 769.8944 769.8944 0 0 1 7.8336 80.0768c1.1776 20.7872-4.5056 57.9584-55.3984 73.0624-31.5904 9.3696-62.464 10.8032-96.6656 11.6224-47.9744 1.1776-103.6288 2.2528-162.9696 2.2528z m2.2528-638.3104a100.0448 100.0448 0 0 0-45.6192 10.7008 122.0096 122.0096 0 0 0-62.3616 79.3088 141.7216 141.7216 0 0 0 17.152 112.64 138.24 138.24 0 0 0 44.8 41.5744 30.72 30.72 0 0 1-9.0624 56.32l-6.912 1.5872c-3.5328 0.8192-6.4512 1.4336-9.2672 2.2528-4.5056 1.28-9.1648 2.816-14.336 4.608-73.6256 25.5488-120.064 73.728-141.9264 147.968A357.4272 357.4272 0 0 0 268.9024 768c-0.4096 12.9024 0 13.0048 10.24 15.36a243.2512 243.2512 0 0 0 47.2064 7.7312c123.2896 5.9904 247.5008 4.096 341.9648 1.792 30.72-0.768 56.32-1.8944 80.6912-9.1648 11.9296-3.5328 11.8272-5.4784 11.52-10.752a724.4288 724.4288 0 0 0-7.168-73.728 223.232 223.232 0 0 0-32.9728-86.7328c-28.5184-43.9296-70.9632-73.472-129.7408-90.2656-2.816-0.768-5.6832-1.4336-8.6016-2.0992l-5.12-1.28a30.72 30.72 0 0 1-19.3024-45.2608l0.3072-0.5632a33.4848 33.4848 0 0 1 7.424-9.728l0.6656-0.5632a67.5328 67.5328 0 0 1 7.424-5.7344 116.0704 116.0704 0 0 0 39.8336-51.5072c23.6544-53.9648 17.0496-102.4-20.1728-147.8656a108.6976 108.6976 0 0 0-83.968-39.2192z m97.28 290.8672z" fill="#00A0E9" p-id="1577"></path><path d="M125.5424 748.3904A121.5488 121.5488 0 0 1 68.8128 737.28c-13.4144-6.7584-28.7232-22.528-30.72-40.96a309.6576 309.6576 0 0 1-1.4848-69.8368 251.392 251.392 0 0 1 88.9344-166.0928A225.28 225.28 0 0 1 168.96 431.4112a158.72 158.72 0 0 1-18.3808-177.408C183.296 192.6656 249.9072 163.0208 312.32 181.9136a30.72 30.72 0 0 1 17.664 44.8512c-41.728 71.68-40.0896 141.6192 5.12 213.6576A30.72 30.72 0 0 1 322.56 484.3008c-89.9584 44.0832-138.24 119.296-151.7568 236.6464a30.72 30.72 0 0 1-29.7984 27.1872h-1.9456c-4.4032 0.1536-8.9088 0.256-13.5168 0.256z m-26.88-65.2288a51.2 51.2 0 0 0 14.9504 3.328c15.36-91.648 52.3264-161.8432 112.128-212.2752a170.24 170.24 0 0 0-60.3648 32.9728 191.5392 191.5392 0 0 0-67.6864 126.3616 226.3552 226.3552 0 0 0 0.9728 49.6128zM255.3856 240.64a84.992 84.992 0 0 0-50.8928 42.5984 96.1024 96.1024 0 0 0 39.5776 131.0208 30.72 30.72 0 0 1 15.6672 30.0032 32.4096 32.4096 0 0 1-1.1776 5.888c2.7648-1.792 5.632-3.584 8.4992-5.12-33.9968-68.1984-37.888-136.6016-11.6736-204.3904zM883.8144 745.6256a30.72 30.72 0 0 1-30.72-27.5968c-12.0832-117.76-60.2624-193.2288-151.7056-238.1312a30.72 30.72 0 0 1-12.3392-44.0832c45.0048-70.5024 46.4896-141.2608 4.4544-216.4224a30.72 30.72 0 0 1 17.92-44.3904 122.368 122.368 0 0 1 93.1328 7.5776c51.712 25.9072 81.3056 70.0928 85.6576 127.6928 3.4816 46.08-9.5232 86.528-37.888 118.2208 71.0656 37.2224 115.5072 100.3008 132.4032 188.0064a281.088 281.088 0 0 1 3.0208 61.7472v5.888a56.32 56.32 0 0 1-47.6672 54.4256c-12.544 2.3552-24.9856 3.7376-37.0688 5.12-5.12 0.5632-10.24 1.1264-15.36 1.792a31.3344 31.3344 0 0 1-3.84 0.1536z m-81.4592-272.5888C860.16 523.264 896 591.9744 910.336 680.96c5.5296-0.6656 10.8544-1.4336 16.0768-2.3552v-1.9968a232.1408 232.1408 0 0 0-1.8944-48.4864c-14.848-77.3632-54.8864-128.256-122.1632-155.0848z m-45.056-32.7168l6.2976 3.8912a31.5904 31.5904 0 0 1-1.1264-7.6288A30.72 30.72 0 0 1 778.24 409.6c1.8944-1.0752 3.6864-1.9968 5.4272-2.9184s3.8912-2.048 4.7104-2.6112c30.3104-21.6576 43.6736-50.7392 40.96-88.8832-2.6624-35.84-19.6608-61.44-51.9168-77.4144a67.584 67.584 0 0 0-9.0112-3.7888 246.7328 246.7328 0 0 1-11.1104 206.336z" fill="#F39800" p-id="1578"></path></svg>