<?xml version="1.0" standalone="no"?><!DOCTYPE svg PUBLIC "-//W3C//DTD SVG 1.1//EN" "http://www.w3.org/Graphics/SVG/1.1/DTD/svg11.dtd"><svg t="1705761936182" class="icon" viewBox="0 0 1024 1024" version="1.1" xmlns="http://www.w3.org/2000/svg" p-id="1872" xmlns:xlink="http://www.w3.org/1999/xlink" width="200" height="200"><path d="M765.0816 942.08c-186.368-0.6656-469.6064-1.28-490.1376 0a31.1296 31.1296 0 0 1-3.1232 0 119.9104 119.9104 0 0 1-119.7568-119.7056v-243.712A81.92 81.92 0 0 1 99.9424 440.32l332.1344-343.6032a117.1456 117.1456 0 0 1 167.8848-0.512l336.5888 343.552a81.92 81.92 0 0 1-51.712 139.1104v243.712A119.8592 119.8592 0 0 1 765.0816 942.08zM276.48 942.08h-1.28z m239.8208-819.6096A55.3472 55.3472 0 0 0 476.16 139.4688L144.0768 482.816a20.48 20.48 0 0 0 14.6432 34.8672h23.808a30.72 30.72 0 0 1 30.72 30.72v274.176A58.3168 58.3168 0 0 0 271.7184 880.64c30.2592-1.1264 195.9936-1.1776 493.4144 0a58.3168 58.3168 0 0 0 58.2656-58.2656v-273.9712a30.72 30.72 0 0 1 30.72-30.72h23.8592a20.48 20.48 0 0 0 14.6944-34.9184l-336.5888-343.552a55.1424 55.1424 0 0 0-39.7824-16.7424z" fill="#00A0E9" p-id="1873"></path><path d="M627.2512 816.2304a30.72 30.72 0 0 1-30.72-30.72v-192.8704a21.2992 21.2992 0 0 0-21.2992-21.2992h-113.664a21.2992 21.2992 0 0 0-21.248 21.2992v192.1024a30.72 30.72 0 0 1-61.44 0v-192.1024a82.7904 82.7904 0 0 1 82.688-82.7392h113.664a82.8416 82.8416 0 0 1 82.7392 82.7392v192.8704a30.72 30.72 0 0 1-30.72 30.72z" fill="#F39800" p-id="1874"></path></svg>