<?xml version="1.0" standalone="no"?><!DOCTYPE svg PUBLIC "-//W3C//DTD SVG 1.1//EN" "http://www.w3.org/Graphics/SVG/1.1/DTD/svg11.dtd"><svg t="1705761958966" class="icon" viewBox="0 0 1024 1024" version="1.1" xmlns="http://www.w3.org/2000/svg" p-id="2317" xmlns:xlink="http://www.w3.org/1999/xlink" width="200" height="200"><path d="M770.5088 392.3968a30.72 30.72 0 0 1-28.6208-19.6096c-2.6112-6.5536-65.8432-162.4576-223.7952-162.4576S293.888 359.6288 291.1744 365.9776a30.72 30.72 0 0 1-56.6272-23.9104c3.328-7.8848 83.6608-193.1776 283.5456-193.1776s277.8624 193.4336 281.0368 201.6768a30.72 30.72 0 0 1-17.5104 39.7312 30.3104 30.3104 0 0 1-11.1104 2.0992z" fill="#F39800" p-id="2318"></path><path d="M970.0352 447.1296a100.1472 100.1472 0 0 0-64.6144-93.184 393.5744 393.5744 0 0 0-94.1568-166.4512 402.2784 402.2784 0 0 0-245.76-125.5936A392.2432 392.2432 0 0 0 340.4288 97.28C230.4 150.6304 157.184 236.9024 122.4704 353.8944A98.7136 98.7136 0 0 0 58.2656 445.44c-0.6656 51.5072-0.6656 94.464 0 135.2704a99.8912 99.8912 0 0 0 36.1984 75.3664 103.1168 103.1168 0 0 0 83.712 21.76 92.8256 92.8256 0 0 0 27.9552-9.6256A328.2944 328.2944 0 0 0 310.1184 783.36a412.4672 412.4672 0 0 0 45.4144 25.6c5.12 2.5088 9.7792 5.12 14.592 7.5776a35.84 35.84 0 0 0 17.0496 4.096 52.992 52.992 0 0 0 7.0144-0.512h0.4096a30.72 30.72 0 0 0 27.3408-40.96v-0.6144a41.728 41.728 0 0 0-9.2672-17.8176 83.9168 83.9168 0 0 0-10.9056-9.6256l-2.7648-2.1504c-49.0496-41.7792-73.9328-91.4944-76.032-151.9616-0.8704-24.7296 10.24-39.3216 33.2288-43.52 19.1488-3.4816 38.8096-5.12 59.648-6.7584 9.6768-0.8192 19.4048-1.5872 29.0304-2.6112a387.9936 387.9936 0 0 0 122.2144-30.72c39.5776-17.8688 65.8944-43.6224 78.5408-76.8a237.0048 237.0048 0 0 1 27.4432 61.0304c29.9008 104.6016 20.48 179.9168-30.72 244.2752a39.8848 39.8848 0 0 0-7.9872 23.808v0.5632a30.72 30.72 0 0 0 35.84 34.2016h0.512a43.6736 43.6736 0 0 0 18.5856-5.8368A343.3984 343.3984 0 0 0 778.24 716.8a353.28 353.28 0 0 0 36.9664-57.0368 174.336 174.336 0 0 0 23.6544 11.1616c-14.848 44.8-78.4384 181.5552-302.08 187.392a30.72 30.72 0 0 0 0.8192 61.44h0.8192c161.7408-4.1984 252.0064-71.0656 299.264-126.464a309.4528 309.4528 0 0 0 63.8464-118.6304 67.6864 67.6864 0 0 0 13.312-6.4512c35.84-22.8864 53.9136-51.9168 54.8352-88.8832 1.4336-46.848 0.9728-92.928 0.3584-132.1984z m-61.44 130.4576c-0.3584 13.312-5.12 24.9856-26.4192 38.6048-8.3968 5.12-38.0416-7.4752-59.8528-25.6a30.72 30.72 0 0 0-48.4352 12.1856 295.3728 295.3728 0 0 1-26.5728 52.1216c11.0592-64.7168-1.6384-126.2592-15.36-173.7728A303.9744 303.9744 0 0 0 675.84 373.76a92.16 92.16 0 0 0-20.48-17.7152c-1.8944-1.28-3.7376-2.5088-5.4784-3.8912a30.72 30.72 0 0 0-18.944-6.5536 29.44 29.44 0 0 0-8.3968 1.1776 30.72 30.72 0 0 0-20.48 18.944c-0.7168 1.8432-1.536 3.7376-2.3552 5.632a82.5344 82.5344 0 0 0-7.7824 25.2416c-3.0208 27.9552-18.176 46.08-50.5856 60.7744a326.4 326.4 0 0 1-103.168 25.6c-9.2672 0.9216-18.5856 1.6896-27.8528 2.4576a658.8416 658.8416 0 0 0-65.2288 7.68c-52.736 9.5744-85.5552 51.2-83.6608 106.0352a273.92 273.92 0 0 0 7.2704 54.4768 285.696 285.696 0 0 1-19.8656-37.632c-1.1776-2.7136-2.4064-5.12-3.4816-6.912l-1.3312-2.4064a30.72 30.72 0 0 0-49.4592-6.8096c-10.5472 11.0592-18.3808 16.1792-27.0336 17.664a42.0352 42.0352 0 0 1-34.048-8.6016 37.9392 37.9392 0 0 1-13.8752-29.0304c-0.6656-40.192-0.6656-82.5856 0-133.4272a37.2224 37.2224 0 0 1 28.16-36.4032 45.2608 45.2608 0 0 0 31.7952-32.768c28.8768-102.7584 92.16-178.3808 187.5968-224.6656A331.1616 331.1616 0 0 1 557.568 122.88a342.016 342.016 0 0 1 209.1008 106.9568A332.0832 332.0832 0 0 1 847.104 373.76a50.176 50.176 0 0 0 34.7648 36.9664 38.7584 38.7584 0 0 1 26.7264 37.3248c0.6144 38.6048 1.0752 84.0704-0.1024 129.536z" fill="#00A0E9" p-id="2319"></path><path d="M500.2752 885.1456m-59.904 0a59.904 59.904 0 1 0 119.808 0 59.904 59.904 0 1 0-119.808 0Z" fill="#F39800" p-id="2320"></path><path d="M433.664 691.2a254.7712 254.7712 0 0 0 169.3696 0 10.24 10.24 0 0 1 12.544 14.2336c-18.7392 35.0208-57.7536 52.4288-97.28 52.4288-40.6016 0-77.056-12.5952-96.6656-52.1728A10.24 10.24 0 0 1 433.664 691.2z" fill="#F39800" p-id="2321"></path></svg>