<?xml version="1.0" encoding="utf-8"?>
<!-- Generator: Adobe Illustrator 25.0.1, SVG Export Plug-In . SVG Version: 6.00 Build 0)  -->
<svg version="1.1" id="图层_1" xmlns="http://www.w3.org/2000/svg" xmlns:xlink="http://www.w3.org/1999/xlink" x="0px" y="0px"
	 viewBox="0 0 443 443" style="enable-background:new 0 0 443 443;" xml:space="preserve">
<style type="text/css">
	.st0{fill:#20A43A;}
	.st1{fill:#18842D;}
	.st2{fill:#18852D;}
	.st3{fill:#20A53A;}
	.st4{fill:#21A53B;}
	.st5{fill:#24A53E;}
	.st6{fill:#FEFEFE;}
	.st7{fill:#FDFEFD;}
</style>
<path class="st0" d="M223.4,442c-0.7-2-1.1-4-1.2-6.1c0-15.5,0-31,0-46.5c0-80.8,0-161.7,0-242.5c0-3.1,0-6.1-0.4-9.2
	c-0.1-0.5,0.2-0.9,0.7-1.1c0.9-0.2,1.9-0.1,2.8,0.3c9.1,2.5,18.1,5.1,27.2,7.4c2.4,0.6,2.9,1.7,2.9,3.9c-0.1,7,0.1,14.1-0.1,21.1
	c-0.1,2.9,0.9,3.9,3.6,4.4c5.8,1.1,11.4,3.3,17.3,4.1c0.2,0,0.3,0,0.5,0c2.2-0.7,3.6,0.4,5.3,1.2c0.1,0.1,0.3,0.1,0.4,0.1
	c4,0,0.6-1.8,1.4-2.6c-0.4-6-0.2-12-0.2-17.9c0-1.5,0.2-3,1.5-3.9c0.2-0.2,0.6-0.2,0.8-0.1c9.1,2.6,18.2,5.2,27.4,7.8
	c1.8,0.5,1.7,1.8,1.7,3.2c0,6.9,0.1,13.8,0,20.7c0,2.2,0.4,3.4,2.9,3.9c5.5,1.2,11,2.8,16.4,4.3c0.2,0.1,0.4,0.1,0.6,0
	c2.6-0.9,4.8,1.1,7.3,1.1c0.4,0,0.8-0.3,1-0.7c0.9-3.1,0.2-6.3,0.3-9.4c0.2-3.9,0.2-7.8-0.2-11.7c0-0.3,0.1-0.5,0-0.7
	c-0.1-1.3,0.5-0.9,1.3-0.7c9,2.6,18,5.3,27.1,7.8c2.4,0.7,1.8,2.4,1.8,3.9c0.1,22.7,0.2,45.3,0.3,68c0.1,27.8,0.1,55.7,0.3,83.5
	c0,3.3-0.7,6.5-2.2,9.4c-7.3,14.7-17.9,26.8-29.9,37.6c-22.1,19.9-47.8,33.8-75.1,45.1c-12.7,5.3-25.8,8.8-38.7,13.8
	c-1.1,0.4-1.4,0.5-1.5,0.6l-0.3,0.1c-0.9,0.4-1.8,0.7-2.8,0.9"/>
<path class="st1" d="M221.9,137.1c1,0.1,1.8,1,1.7,2c0,0,0,0.1,0,0.1c0,1.1,0,2.3,0,3.4V443l-1-0.3c0,0-17.8-5.8-26.6-9
	c-30.4-11-59.2-24.9-84.4-45.5c-13.9-11.4-26.1-24.4-35-40.2c-2.6-4.5-3.9-9.5-3.8-14.7c0.3-49.6,0.5-99.3,0.5-148.9
	c0-2.9,0.9-4.1,3.7-4.9c8.7-2.3,17.4-4.9,26.1-7.4l0,0c1.3,1.3,1.1,3,1.1,4.6c0,4.9,0,9.8,0,14.7c0,3.7,0.3,3.9,3.9,3.3
	c1.3-0.4,2.7-0.4,4.1-0.2l0,0c5.8-1.5,11.6-3.1,17.5-4.4c2-0.5,2.1-1.7,2.1-3.3c0-7,0-14.1,0-21.1c0-1.4-0.1-2.7,1.7-3.2
	c9.3-2.6,18.6-5.3,27.8-7.9l0,0c1.4,1.4,1,3.3,1.1,5c0.2,6.3-0.3,12.6,0.3,18.8l0,0c2.1,1.8,4-0.3,6-0.2c1.1-0.3,1.6,0.2,3.2,0.1
	c5.3-1.5,10.6-3.1,16-4.3c2.7-0.6,3.7-1.6,3.6-4.5c-0.2-7.2-0.1-14.4-0.1-21.6c0-1.4-0.1-2.6,1.8-3.1
	C202.9,142.3,212.4,139.6,221.9,137.1z"/>
<path class="st0" d="M581.6,174.3c7.8,6.9,14.9,13.1,21.9,19.4c6,5.4,6,5.4-0.4,10.2c-1.3,1-2.5,2-4.6,3.6c9,0,17,0,24.9,0
	c5.5,0,4.8-0.7,4.9,4.8c0,2.9-0.2,5.8,0,8.7c0.2,2.4-0.7,3-3,3c-9.2-0.1-18.4-0.1-27.6-0.1c-41.9,0-83.8,0-125.7,0.1
	c-3.2,0-4.6-0.5-4.2-4c0.3-2.8,0.3-5.5,0-8.3c-0.3-3.2,0.5-4.2,4-4.2c20.6,0.2,41.1,0,61.7,0.2c3.2,0,4.3-0.6,4.2-4
	c-0.3-8.4-0.3-16.9,0-25.3c0.1-3.5-1.1-4.1-4.2-4.1c-13.2,0.2-26.5,0-39.7,0.1c-2.6,0-3.5-0.6-3.4-3.3c0.2-3.1,0.2-6.3,0-9.4
	c-0.2-2.6,0.6-3.4,3.3-3.4c13.4,0.1,26.8,0,40.1,0.1c3.2,0.1,4-0.8,3.9-3.9c-0.3-6.3-0.2-12.6,0-18.9c0.1-2.5-0.7-3.1-3.2-3.1
	c-15.4,0.1-30.8,0-46.2,0.1c-3,0-3.9-0.7-3.8-3.8c0.2-7.9,0-7.9-7.7-7.9c-7.4,0-7.4,0-7.4-7.3c0-9.9,0.2-19.9-0.1-29.9
	c-0.1-3.6,0.7-4.7,4.5-4.6c21.2,0.2,42.4,0.1,63.6,0.1c4.3,0,4.3,0,2.6-4c-1.9-4.5-3.7-9.1-5.8-13.5c-0.9-2-0.3-2.6,1.5-3
	c4.2-0.8,8.4-1.6,12.5-2.7c2.1-0.5,2.9,0.2,3.7,1.9c2.7,5.9,5.8,11.7,8.3,17.8c1.2,2.8,2.7,3.6,5.6,3.6c18.7-0.1,37.3,0,56-0.1
	c3.1,0,4.1,0.7,4,3.9c-0.2,11.5-0.2,22.9,0,34.4c0,2.6-0.6,3.8-3.3,3.4c-0.8-0.1-1.5-0.1-2.3,0c-3,0-6.9-1-8.8,0.5
	c-2.2,1.6-0.7,5.7-0.7,8.6s-1.7,2.5-3.5,2.5c-15.5,0-31,0.1-46.5-0.1c-3.4-0.1-4.2,0.9-4.1,4.2c0.3,6.2,0.2,12.4,0,18.5
	c-0.1,2.8,0.9,3.3,3.4,3.3c14.3-0.1,28.5,0,42.8-0.1c2.6,0,3.6,0.6,3.4,3.3c-0.2,3.3-0.2,6.6,0,9.8c0.1,2.4-0.7,3-3,3
	C596.5,174.2,589.6,174.3,581.6,174.3z"/>
<path class="st0" d="M223.4,68.3c4.5,0.3,7.3,2,8,7c0.6,4.2,1,9.4,3.6,12s7.9,2.7,12,3.9c50.1,14,100.2,28.1,150.2,42.2
	c2.6,0.7,4.6,0.7,6.5-1.2c0.2-0.2,0.4-0.3,0.6-0.4c7-7.1,15.2-9.2,24.9-5.3c0.2,0.7-0.9,1.3-1.4,2c-7.9,10.4-15.9,20.8-23.8,31.3
	c-1.5,2-2.7,2.6-5.3,1.8c-57.3-16.6-114.7-33.2-172.1-49.7c-1.8-0.6-3.7-0.7-5.6-0.5c1.4-4.5,1-9.1,1-13.7c0-8,0-16,0-24
	C222.2,71.8,222.1,69.8,223.4,68.3z"/>
<path class="st1" d="M223.4,68.3c0,12.9,0,25.8,0,38.7c0,2-0.2,3.7-2.3,4.5c-15.7,4.6-31.4,9.3-47.1,13.8c-42,12.1-84,24.2-126,36.3
	c-1.5,0.4-2.9,1.3-4.3-0.6c-8.7-11.5-17.5-23-26.7-35l13.8-1.7c0.8-0.1,1.5,0.1,2.1,0.6c0.6,0.4,1.2,0.9,1.8,1.3
	c7.1,7.5,14.8,7.6,24.7,4.7c49.7-14.5,99.6-28.2,149.5-42.1c2.4-0.7,3.9-1.6,4.3-4.3c0.5-3.1,1.8-6.1,2.1-9.2
	C215.9,70.2,219,68.6,223.4,68.3z"/>
<path class="st0" d="M223.4,0.4c6.9-0.4,6.9-0.4,8.2,6.4c1.6,8.5,3.2,17.1,4.7,25.6c0.1,1.8,1.4,3.2,3.1,3.6
	c46.6,13.9,93.1,27.9,139.7,42c1.4,0.6,3,0.3,4.2-0.7c0.2-0.2,0.4-0.3,0.6-0.4c7.5-6.7,15.7-10.2,25.9-5.3c0.1,0.8-1.2,1.2-1.9,1.9
	c-8.9,8.7-18,17.4-26.7,26.2c-2.1,2.2-4,2.6-6.9,1.7c-49.3-13.9-98.6-27.7-148-41.5c-1.2-0.3-2.5-0.5-3.7-0.8
	c-0.5-1.2-0.7-2.4-0.5-3.7c0-16.4,0-32.9,0-49.3C222.2,4.1,221.9,2,223.4,0.4z"/>
<path class="st1" d="M223.4,0.4c0,18.1,0,36.2,0,54.4c0,1.5,0.2,3-0.7,4.4C198.4,66,174.2,72.8,150,79.6
	c-25.7,7.2-51.4,14.3-77.1,21.7c-3.4,1-5.5,0.4-7.8-2.1c-8.9-9.7-18-19.3-26.6-28.6c2.8-0.4,7.2-1,11.6-1.7c1.8-0.3,3,0.8,4,1.8
	c7.3,7.6,15.1,7,24.8,4c42.3-13.3,84.9-25.8,127.4-38.4c2.8-0.8,4-2.1,4.5-5c1.4-8.7,3.4-17.3,4.7-26c0.6-4,1.9-5.9,6.1-5
	C222.1,0.4,222.8,0.4,223.4,0.4z"/>
<path class="st0" d="M704,174.5c5.3-1.9,10.3-3.6,15.2-5.5c2.2-0.9,3-0.6,3.4,1.9c0.6,3.6,1.4,7.2,2.5,10.6c0.5,1.9,0,2.7-1.8,3.4
	c-16.7,6.7-33.4,13.4-50,20.2c-1.7,0.7-2.6,0.8-3.2-1.3c-1.3-4.6-2.8-9.1-4.5-13.6c-0.8-2.1,0.2-2.5,1.8-3.1
	c5.7-1.8,11.4-3.8,17.2-5.6c2.1-0.6,3-1.6,2.9-4c-0.1-18.5-0.1-37,0-55.6c0-2.7-0.8-3.5-3.4-3.4c-4.4,0.2-8.8,0-13.2,0.1
	c-1.9,0-2.7-0.6-2.7-2.6c0.1-3.7,0.2-7.3,0-11c-0.1-2.4,0.6-3.4,3.2-3.2c4,0.2,8.1-0.2,12.1,0.1c3.5,0.3,4.1-1,4.1-4.2
	c-0.2-11.6,0-23.2-0.2-34.8c0-3.1,0.9-3.9,3.8-3.7c3.3,0.2,6.6,0.2,9.8,0c2.6-0.2,3.2,0.8,3.2,3.2c-0.1,12,0,23.9-0.1,35.9
	c0,2.8,0.6,3.8,3.5,3.6c4-0.3,8.1,0,12.1-0.1c1.9,0,2.7,0.5,2.6,2.6c-0.1,3.7-0.2,7.3,0,11c0.1,2.5-0.6,3.3-3.1,3.2
	c-4.2-0.2-8.3,0-12.5-0.1c-1.5,0-2.6,0-2.6,2.1C704,138.5,704,156.2,704,174.5z"/>
<path class="st0" d="M779.4,168c13.1,0,26.2,0.1,39.3-0.1c2.6,0,3.7,0.3,3.7,3.4c-0.2,18.1-0.2,36.3,0,54.4c0,2.7-0.8,3.5-3.4,3.4
	c-3.5-0.2-7.1-0.2-10.6,0c-2.7,0.2-3.7-0.9-3.3-3.4c0.5-2.8-0.9-3.3-3.4-3.2c-15.5,0.1-31,0.1-46.5,0c-2.6,0-3.8,0.7-3.3,3.4
	s-0.7,3.5-3.3,3.3c-3.1-0.2-6.3-0.2-9.5,0c-2.6,0.2-3.5-0.6-3.4-3.3c0.1-18.3,0.1-36.5,0-54.8c0-2.6,0.9-3.1,3.2-3.1
	C752.5,168.1,765.9,168,779.4,168z"/>
<path class="st0" d="M523.1,348.6c0.2,1,1,1,1.5,1.2c9.6,4.3,14.8,12.1,14.3,21.5c-0.6,11.6-6.8,20-17.2,23.2
	c-4.7,1.4-9.6,2.1-14.5,2.1c-11.1,0.1-22.2,0-33.3,0.1c-2.5,0-3.1-0.6-3.1-3.1c0.1-27.8,0.1-55.7,0-83.5c0-1.7-0.1-3.2,2.4-3.1
	c12.9,0.3,25.7-0.6,38.5,0.5c10.4,0.9,18.2,5.7,21.6,16c2.9,8.5-0.1,17.9-7.4,23.2C525.1,347.3,524.1,348,523.1,348.6z"/>
<path class="st0" d="M808.5,142.7c0,3.8-0.1,7.1,0,10.4c0.1,2-0.4,2.9-2.7,2.9c-18.5-0.1-37.1-0.1-55.6,0c-2,0-2.7-0.7-2.6-2.6
	c0.1-3.5,0-6.9,0-11c-7.4,4.5-14.3,8.6-21.5,12.3c-2.2,1.1-3.3,1-4.8-1.1c-2.8-4-6.2-7.6-10-10.7c7.2-3.2,14.2-6.9,21-10.9
	c14.8-8.8,28.6-18.9,39.8-32.2c1.1-1.4,2.1-1.8,3.8-1.1c3.6,1.5,7.2,3,10.9,4.2c2.1,0.7,2.4,1.6,0.9,3c-2.2,2-1.5,3.2,0.7,4.8
	c15,11.1,31.2,20.5,48.3,27.8c2.8,1.2,3.5,1.9,1,4.3c-2.8,2.6-5.3,5.4-7.6,8.4c-1.4,1.8-2.5,2.1-4.4,1
	C820.2,149.1,814.5,146.1,808.5,142.7z"/>
<path class="st0" d="M811.6,376.7v-4.6c0-20.5,0.1-41.1-0.1-61.6c0-3.1,0.9-3.7,3.8-3.7c7.8,0.1,7.8,0,7.8,7.6
	c0,26.2,0,52.4,0.1,78.6c0,2.8-0.7,3.2-3.5,3.6c-6.8,1-10.5-2-14.1-7.5c-12.9-20-26.5-39.5-39.8-59.3c-0.5-0.7-1-1.4-2-2.9
	c-0.1,2.2-0.2,3.5-0.2,4.9c0,20.3-0.1,40.6,0.1,60.9c0,3.2-0.9,4-4,3.9c-7.7-0.2-7.7-0.1-7.7-7.6c0-26.1,0.1-52.2-0.1-78.2
	c0-3.1,0.9-3.7,4-4c6.3-0.8,9.9,1.7,13.3,7c12.8,19.8,26.2,39.1,39.4,58.6C809.3,373.6,810.2,374.7,811.6,376.7z"/>
<path class="st0" d="M778.1,74.7c4.5,0,9.1-0.2,13.6,0.1c3.2,0.2,3.8-1.1,3.7-3.9c-0.2-3.4,0-6.8-0.1-10.2c-0.1-2,0.6-2.7,2.6-2.7
	c3.8,0.1,7.6,0.1,11.3,0c2-0.1,2.6,0.7,2.6,2.6c-0.1,3.7,0.1,7.3-0.1,11c-0.2,2.6,0.9,3.2,3.3,3.1c6.3-0.1,12.6,0.1,18.9-0.1
	c2.5-0.1,3.3,0.7,3.2,3.2c-0.2,3-0.2,6,0,9.1c0.1,2.3-0.7,3-3,3c-6.4-0.1-12.9,0-19.3-0.1c-2.2,0-3.2,0.6-3,3c0.2,4,0,8.1,0.1,12.1
	c0,1.9-0.5,2.7-2.5,2.6c-3.8-0.1-7.6-0.1-11.3,0c-2,0.1-2.7-0.7-2.6-2.6c0.1-4.2,0-8.3,0.1-12.5c0-2-0.6-2.6-2.6-2.6
	c-9.8,0.1-19.7,0.1-29.5,0c-2.3,0-2.8,0.9-2.7,2.9c0.1,3.9-0.1,7.8,0.1,11.7c0.1,2.2-0.4,3.2-2.9,3.1c-3.5-0.2-7.1-0.2-10.6,0
	c-2.2,0.1-2.8-0.7-2.8-2.8c0.1-4-0.1-8.1,0.1-12.1c0.1-2.1-0.6-2.8-2.8-2.8c-6.4,0.1-12.9,0-19.3,0.1c-2.3,0-3.5-0.4-3.2-3.1
	c0.2-3.1,0.2-6.3,0-9.4c-0.1-2.2,0.8-2.8,2.8-2.7c6.4,0.1,12.9-0.1,19.3,0.1c2.5,0.1,3.3-0.7,3.2-3.2c-0.2-3.6,0-7.3-0.1-11
	c-0.1-2,0.7-2.7,2.6-2.6c3.7,0.1,7.3,0.2,11,0c2.3-0.1,2.7,1,2.7,2.9c-0.1,3.7,0.1,7.3-0.1,11c-0.1,2.1,0.7,2.9,2.8,2.8
	C768.2,74.6,773.2,74.7,778.1,74.7z"/>
<path class="st0" d="M659.9,350.5c-0.1-6.8,1.1-13.6,3.5-20c6.7-16.9,23.5-26.7,42.3-25.1c15,1.3,25.4,8.6,31,22.7
	c1,2.5,1.1,3.9-2.2,4.3c-2.7,0.3-5.7,2.2-8,1.5s-2.4-4.4-3.7-6.6c-4.8-8.5-12.4-11.8-21.8-11.6c-10.7,0.3-19.7,4.4-24.3,14.4
	c-6.6,14.4-6.4,29.2,0.2,43.5c4.5,9.8,15.2,14.8,27.2,13.8c10.3-0.9,18.5-7.6,21.6-18.3c1.1-3.8,2.6-4.6,5.9-3.1
	c0.2,0.1,0.5,0.1,0.7,0.2c7.4,1.8,7.4,1.8,4.6,8.7c-6.7,16.7-22.1,25.2-41.2,22.8c-19.5-2.4-31.2-13.9-35-34.5
	C660.4,359,660,354.8,659.9,350.5z"/>
<path class="st0" d="M587.4,357.1c0,12-0.1,23.9,0.1,35.9c0,2.7-0.4,3.7-3.4,3.7c-8.7-0.1-8.7,0-8.7-8.8c0-22.2-0.1-44.4,0.1-66.5
	c0-2.8-0.7-3.6-3.5-3.6c-7.7,0.2-15.4,0-23.1,0.1c-2.3,0-3-0.6-3-2.9c-0.1-8-0.2-8,7.8-8c19.9,0,39.8,0.1,59.8-0.1
	c3,0,3.8,0.9,3.7,3.8c-0.2,7.1,0,7.1-7.1,7.1c-6.2,0-12.4,0.2-18.5-0.1c-3-0.1-4.1,0.6-4,3.8C587.5,333.4,587.4,345.3,587.4,357.1z"
	/>
<path class="st0" d="M112.2,194.5c-2.4,0.9-4.9,1.6-7.4,2.1c-2,0.4-1.7-1.6-1.7-2.8c-0.1-7.3,0-14.5,0-21.8c0.1,0,0.2-0.1,0.4-0.1
	c8.7,1.4,8.7,1.4,8.7,10.1C112.1,186.2,112.2,190.4,112.2,194.5z"/>
<path class="st2" d="M343.8,172v1.4c0.6,7.8,0.6,15.6,0,23.4c-3.2-0.5-6.1-1.6-9.2-2.3c0-5.7,0.2-11.3,0-17
	c-0.1-2.8,0.8-4.2,3.6-4.5C340.1,173,341.8,171.9,343.8,172z"/>
<path class="st2" d="M281.5,179.5c-1.7-0.4-3.4-0.9-5.1-1.5c0-6.1,0.2-12.3-0.1-18.4c-0.1-2.8,0.9-3.8,3.4-4.1
	c1.9-0.2,3.7-1.4,5.8-1c-1.5,3.1-0.6,6.4-0.7,9.6c-0.1,4.6,0,9.3,0,13.9C284.9,179.9,285,180.4,281.5,179.5z"/>
<path class="st3" d="M168.9,178.7c1-0.2,2-0.4,3-0.6c-2.1-0.1-1.4-1.7-1.4-2.8c-0.1-5.5,0-11,0-16.5c0-1.2,0.3-2.6-1.5-2.9
	c-2.5-0.4-4.9-1.7-7.6-1.5c0,7.3,0,14.6,0,21.9c0,0.4-0.2,3.6,0.7,3.9c0.5,0,0.9,0,1.4-0.2c0.4-0.1,0.9-0.1,1.3-0.2"/>
<path class="st4" d="M643.6,390.1c0,6.5,0,6.5-6.4,6.5s-6.3,0-6.3-6.2c0-6.5,0-6.5,6.5-6.5C643.6,383.8,643.6,383.8,643.6,390.1z"/>
<path class="st5" d="M343.8,196.9c0-7.8,0-15.6,0-23.4c1.2,1.1,0.7,2.6,0.7,3.9c0.2,6.3-0.4,12.6,0.4,19c0,0.3-0.3,0.6-0.5,0.9
	C344.3,197.2,344,197,343.8,196.9z"/>
<path class="st6" d="M547.4,116.1c-18.9,0-37.8-0.1-56.7,0.1c-2.9,0-4-0.7-3.8-3.7c0.3-4.3,0.3-8.6,0-12.8c-0.2-3.2,1-3.7,3.9-3.7
	C511.2,96,531.6,96,552,96c17.3,0,34.5,0.1,51.8-0.1c3,0,3.9,0.8,3.8,3.8c-0.3,4.1-0.3,8.3,0,12.5c0.3,3.6-1.2,4-4.3,4
	C584.7,116,566.1,116.1,547.4,116.1z"/>
<path class="st6" d="M594.5,207.6c-12.3,0-23.7,0-35.2,0c-1.8,0-2.4-0.6-2.4-2.4c0.1-9.4,0.1-18.9,0-28.3c0-1.9,0.5-2.7,2.5-2.7
	c6.6,0.1,13.3,0,21.1,0l-12,8.5C577.2,190.8,585.8,198.5,594.5,207.6z"/>
<path class="st6" d="M778.3,207.6c-7.8,0-15.6-0.1-23.4,0c-2.3,0-3.1-0.6-3-2.9c0.2-6.5,0.1-13.1,0-19.6c0-1.9,0.5-2.6,2.5-2.6
	c16.1,0.1,32.2,0.1,48.3,0c1.8,0,2.4,0.5,2.4,2.3c-0.1,6.8-0.1,13.6,0,20.4c0,2.1-0.9,2.5-2.7,2.4
	C794.4,207.6,786.4,207.6,778.3,207.6z"/>
<path class="st6" d="M483,370.7c0-4.3,0.1-8.6,0-12.8c-0.1-2,0.7-2.6,2.6-2.5c8.5,0.2,17.1-0.4,25.7,0.4c11.4,1,17.6,9.7,14.4,19.8
	c-1.9,6-6.4,8.9-12.3,9.7c-9.4,1.3-18.9,0.4-28.3,0.6c-1.8,0-2.1-0.8-2-2.3C483,379.3,483,375,483,370.7z"/>
<path class="st6" d="M497.6,344.5c-4.6,0-8.4-0.1-12.2,0c-2,0.1-2.5-0.7-2.5-2.6c0.1-7.2,0-14.4,0-21.5c0-1.2-0.4-2.7,1.7-2.6
	c9.2,0.3,18.4-0.8,27.5,0.8c6.6,1.1,10.2,5.6,10.3,12.4c0.2,6.8-3.3,11.2-9.9,12.8C507.4,344.9,502.1,344.3,497.6,344.5z"/>
<path class="st7" d="M806.4,141.1h-57c7.7-5.4,15.1-11.3,22-17.7c4.7-4.5,4.8-4.4,9.8-0.4C789,129.3,797.3,135,806.4,141.1z"/>
</svg>
