<?xml version="1.0" encoding="utf-8"?>
<!-- Generator: Adobe Illustrator 25.0.1, SVG Export Plug-In . SVG Version: 6.00 Build 0)  -->
<svg version="1.1" id="图层_1" xmlns="http://www.w3.org/2000/svg" xmlns:xlink="http://www.w3.org/1999/xlink" x="0px" y="0px"
	 viewBox="0 0 306 306" style="enable-background:new 0 0 306 306;" xml:space="preserve">
<style type="text/css">
	.st0{fill-rule:evenodd;clip-rule:evenodd;fill:#2DB1F7;}
	.st1{fill-rule:evenodd;clip-rule:evenodd;fill:#1A8BF1;}
	.st2{fill-rule:evenodd;clip-rule:evenodd;fill:#0E62EA;}
	.st3{opacity:0.981;fill-rule:evenodd;clip-rule:evenodd;fill:#141414;enable-background:new    ;}
	.st4{opacity:0.975;fill-rule:evenodd;clip-rule:evenodd;fill:#141414;enable-background:new    ;}
	.st5{opacity:0.983;fill-rule:evenodd;clip-rule:evenodd;fill:#151515;enable-background:new    ;}
	.st6{opacity:0.972;fill-rule:evenodd;clip-rule:evenodd;fill:#151515;enable-background:new    ;}
	.st7{opacity:0.991;fill-rule:evenodd;clip-rule:evenodd;fill:#171717;enable-background:new    ;}
	.st8{opacity:0.945;fill-rule:evenodd;clip-rule:evenodd;fill:#141414;enable-background:new    ;}
	.st9{opacity:0.976;fill-rule:evenodd;clip-rule:evenodd;fill:#161616;enable-background:new    ;}
	.st10{opacity:0.102;fill-rule:evenodd;clip-rule:evenodd;fill:#666666;enable-background:new    ;}
	.st11{opacity:0.987;fill-rule:evenodd;clip-rule:evenodd;fill:#161616;enable-background:new    ;}
	.st12{opacity:0.98;fill-rule:evenodd;clip-rule:evenodd;fill:#151515;enable-background:new    ;}
	.st13{opacity:0.99;fill-rule:evenodd;clip-rule:evenodd;fill:#181818;enable-background:new    ;}
	.st14{fill-rule:evenodd;clip-rule:evenodd;fill:#136AEC;}
	.st15{fill-rule:evenodd;clip-rule:evenodd;fill:#1772ED;}
	.st16{fill-rule:evenodd;clip-rule:evenodd;fill:#0E76EE;}
	.st17{fill-rule:evenodd;clip-rule:evenodd;fill:#107DEF;}
	.st18{fill-rule:evenodd;clip-rule:evenodd;fill:#1083F0;}
	.st19{fill-rule:evenodd;clip-rule:evenodd;fill:#1089F1;}
	.st20{fill-rule:evenodd;clip-rule:evenodd;fill:#149CF4;}
	.st21{fill-rule:evenodd;clip-rule:evenodd;fill:#1191F2;}
	.st22{fill-rule:evenodd;clip-rule:evenodd;fill:#11A5F5;}
	.st23{fill-rule:evenodd;clip-rule:evenodd;fill:#1873ED;}
	.st24{fill-rule:evenodd;clip-rule:evenodd;fill:#0FADF6;}
	.st25{fill-rule:evenodd;clip-rule:evenodd;fill:#129CF4;}
	.st26{fill-rule:evenodd;clip-rule:evenodd;fill:#16A5F5;}
	.st27{fill-rule:evenodd;clip-rule:evenodd;fill:#136BEC;}
	.st28{fill-rule:evenodd;clip-rule:evenodd;fill:#14B8F8;}
	.st29{fill-rule:evenodd;clip-rule:evenodd;fill:#18AFF7;}
	.st30{fill-rule:evenodd;clip-rule:evenodd;fill:#21ACF6;}
	.st31{fill-rule:evenodd;clip-rule:evenodd;fill:#1CB3F7;}
	.st32{fill-rule:evenodd;clip-rule:evenodd;fill:#18BFF9;}
	.st33{fill-rule:evenodd;clip-rule:evenodd;fill:#0367EB;}
	.st34{fill-rule:evenodd;clip-rule:evenodd;fill:#006DEC;}
	.st35{fill-rule:evenodd;clip-rule:evenodd;fill:#007FEF;}
	.st36{fill-rule:evenodd;clip-rule:evenodd;fill:#008CF1;}
	.st37{fill-rule:evenodd;clip-rule:evenodd;fill:#0092F2;}
	.st38{fill-rule:evenodd;clip-rule:evenodd;fill:#0099F3;}
	.st39{fill-rule:evenodd;clip-rule:evenodd;fill:#009FF4;}
	.st40{fill-rule:evenodd;clip-rule:evenodd;fill:#00A9F6;}
	.st41{fill-rule:evenodd;clip-rule:evenodd;fill:#0075ED;}
</style>
<g>
	<path class="st0" d="M247.1,211.3c1.4-0.2,2.7,0,4,0.5c-2.6,0.6-3.3,1.9-2,4c-2.2,3.1-4.6,6.1-7,9c0.8,1.7,0.1,3.1-2,4
		c0.3,0.3,0.7,0.7,1,1c-2.2,0.4-2.8,1.4-2,3c-7.1,2.3-14.4,3.2-22,2.5c0.4-0.7,1.1-1.2,2-1.5c-0.7-0.3-1.3-0.7-2-1c1.3-2,3-3.7,5-5
		c-1.3-1.3-1.1-2.5,0.5-3.5c0.3,0.3,0.7,0.7,1,1c1.1-2.9,2.6-6.1,4.5-9.5c-9.7-0.5-19.3-0.7-29-0.5c-4,0-8,0-12,0c-5,0-10,0-15,0
		c-4.7,0-9.3,0-14,0c-4.3,0-8.7,0-13,0c-4,0-8,0-12,0c-5.3,0-10.7,0-16,0c-9,0-18,0-27,0c-5.7,0-11.3,0-17,0c-7.7,0-15.3,0-23,0
		c-3.5,0.3-6.9,0-10-1c65.7,0.2,131.3,0,197-0.5c1.2,0,2.7-0.1,4.3-0.4C243.9,212.9,245.8,212,247.1,211.3z"/>
</g>
<g>
	<path class="st1" d="M132.8,214.4c4,0,8,0,12,0c-0.7,1.4-0.7,2.6,0,3.7c-0.9,0.5-1.9,0.7-3,0.5c0.2,1.4,0,2.8-0.5,4.2
		c-2.4,2.2-4.2,4.8-5.5,7.8c0.3,0.3,0.7,0.7,1,1c-1.3,0.9-2,2.1-2,3.7c-1.9-0.3-3.6,0.1-5,1c-30.8,0.3-61.5,0-92-1c8,0,16,0,24,0
		c5,0,10,0,15,0c9.7,0,19.3,0,29,0c5.3,0.2,10.7,0,16-0.5c0.6-2.9,1.8-5.8,3.5-8.9C127.9,222,130.4,218.2,132.8,214.4z"/>
</g>
<path class="st2" d="M71.2,214.4c-8,0-15.9,0-23.9-0.1l-12,5.9l12,5.9h23.9l12-5.9C79.2,218.3,75.2,216.3,71.2,214.4z"/>
<g>
	<path class="st3" d="M814.1,94.2c0.8,0,1.6,0,2.3,0c8,0,15.7-0.6,23.1-1.4c1.6-0.3,3.2,0.2,4.2,1.4c1.2,1.5,0.8,3.3,0.8,3.6
		c-0.4,2.1-1,3.7-1.4,4.6c-0.4,0.8-0.8,1.4-1.3,1.9c-0.3,0.3-0.9,0.8-1.7,1.2c-1.6,0.8-3.1,0.8-5,0.9c-1.2,0.1-2.9,0.2-5.1,0.5
		c5.6,5.2,5.3,9.8-1,14c1.9-0.3,4.1-0.5,6.4-0.6c1.2,0,2.3,0,3.3,0c0.3,0,0.7,0,1.2,0c3,0,4.9,0,7.1,0.1c1.3,0,3.1,0,5.4,0
		c-0.3-0.1-0.8-0.4-1.4-0.7c-1.1-0.6-2-1.1-3.7-2.1c-0.9-0.5-1.2-0.8-1.6-1.2c-0.7-0.7-1-1.3-1-1.5c0-0.1-0.3-0.6-0.3-1.3
		c-0.1-1.3,0.5-2.3,1.9-5c0.3-0.6,0.6-1.2,0.9-1.8c1.9-3.5,2.7-7.4,3-8.8c0.4-1.9,1.2-6,1.7-9c0-0.3,0.1-0.8,0.4-1.4
		c0.2-0.7,1.2-3.3,4-4.1c0,0,2.6-0.8,5.4,1.2c0.2,0.2,0.7,0.5,0.9,1c0.2,0.4,0.3,0.9,0.3,1.5c0,0.7,0,1.7-0.3,3
		c4.4-0.1,8.8-0.1,13.3,0c6.3,0.1,12.5,0.3,18.4,0.6c0.1,0,1.4-0.3,2.3,0.7c0.9,0.9,0.7,2.1,0.7,2.2c-0.2,2-0.7,3.5-1,4.6
		c-0.6,1.7-1.2,2.4-1.7,2.8c-0.4,0.4-1,0.6-1.7,0.9c-1.8,0.6-3.3,0.4-5,0.3c-3.2-0.2-6.1-0.4-6.4,0.4c-0.1,0.2,0.1,0.4,0.7,1.4
		c0.5,0.8,0.9,1.7,1.4,2.5c0.6,0.9,1.5,2.6,3.2,5.7c0.3,0.5,1.2,2.1,0.8,4.1c-0.2,0.8-0.5,1.4-0.7,1.8c-0.1,0.3-0.7,2.5-3,3.5
		c-2.6,1.1-4.8-0.4-5-0.5c-0.5-0.4-1-0.8-1.5-1.4c-0.5-0.5-0.8-1-1.1-1.5c-1.3-2.3-1.9-4.3-2.3-5.7c-0.7-2.4-1.5-4.7-2.1-7.1
		c-0.1-0.6-0.5-2.3-1.7-2.8c-0.3-0.1-0.6-0.2-1-0.2c-0.7-0.1-1.2-0.1-1.9-0.1c-1.9,0-1.5,0-2.4,0c-1,0-2.2,0.1-3.5,0.3
		c-0.3,0-1,0-1.8,0.6c-0.9,0.7-1.1,1.6-1.1,1.8c-0.5,1.3-1,2.7-1.4,4.1c-0.5,1.5-0.9,3-1.2,4.4c-0.2,0.8-0.4,1.5-0.6,2
		c-0.9,3-1.2,3.6-1.9,4c-0.5,0.3-1.1,0.4-1.1,0.5s0.9,0.1,1.4,0c1.3-0.1,2.6,0.1,5,0.5c1.9,0.3,3.4,0.6,4.1,0.7
		c1.1,0.2,1.9,0.5,2.6,0.6c2.4,0.6,3.6,1,5.2,1.6c2.1,0.8,3.7,1.7,4.6,2.2c0.6,0.3,1,0.6,1.6,0.9c1.8,1.2,3,2.3,4.4,3.6
		c0.4,0.4,1.7,1.6,3.1,3.4c1.1,1.3,1.9,2.4,2.6,3.3c1.1,1.4,2.5,3.6,3.3,6.6c0.1,0.3,0.2,0.8,0.3,1.5c1.4,7.2,0.7,14.6,0.7,14.6
		c-0.5,5.8-2,10.7-3.4,14.3c-0.8,2.1-1.8,3.7-2.5,4.7c-1.4,2-2.9,3.3-4.6,4.7c-1.6,1.3-3,2.3-4,3c-1.5,0.8-1.8,1.6-1.9,2.1
		c0,0.3,0,0.4,0.1,1.4c0.1,0.7,0.2,1.4,0.2,2.2c0.2,2,0.4,4.9,0.4,5.3c0.1,1.8,0.2,4,0.2,6.7c5.8-0.3,11.4,0,17,1
		c1.2,0.4,1.7,1,1.9,1.3c1.3,1.8,0.2,4.2-0.3,5.6c-0.2,0.5-0.5,1-1,1.4c-0.6,0.5-1.3,0.7-1.6,0.7c-4.5,0.9-7.1,0.8-7.1,0.8
		c-2-0.1-4.8-0.1-8.4,0.1c0,2.6-0.1,4.7-0.1,6.6c0,1.4,0,3-1,4.4c-0.4,0.6-0.9,0.9-1,1.1c-1.4,1.1-3,1-5.6,0.9
		c-2-0.1-2.6-0.4-2.9-0.8c-0.4-0.5-0.5-1.1-0.5-1.4c-0.2-1.7-0.3-5.2-0.4-9.8c-4.6,0-9.3,0-14,0c-7.3,0.1-14.4,0.2-21.4,0.5
		c0.2,2.9,0.4,5.8,0.7,8.7c-0.1,0.4-0.2,1.1-0.8,1.7c-0.1,0.1-0.5,0.6-1.9,1.1c-1,0.4-1.9,0.7-3.2,0.7c-0.7,0-1.8,0-2.9-0.7
		c-0.2-0.1-0.8-0.5-1.3-1.1c-1.1-1.3-1.1-2.7-1.5-5.9c-0.1-0.9-0.3-2.2-0.6-3.9c-4.8,0.1-9.6,0.2-14.3,0.3c-0.6,0-1.7,0-2.8-0.6
		c-1.5-0.9-1.9-2.4-2.2-3.6c-0.4-1.3-1.1-3.9,0.4-5.7c0.9-1.1,2.3-1.4,2.9-1.5c5.3,0,10.7,0,16,0c-0.1-4,0.3-8,1-12
		c0.5-1,1.1-1.8,2-2.5c-5.1-1.7-9.8-4.2-14-7.5c-0.9-1-1.9-2.2-2.9-3.6c-0.9-1.4-1.7-2.7-2.2-3.8c-0.7-1.7-1.7-4.3-2.3-7.6
		c-1-5-0.3-6.5-0.3-15.4c0-3.4-0.1-15.4,1.5-19.3c0.6-1.5,1.2-2.7,1.2-2.8c0.4-0.7,0.6-1.1,1.7-2.9c0.7-1.1,1.2-2,1.4-2.4
		c2.5-2.5,3-3,3-3.1c-0.1-0.1-2.2,2.9-5,2.8c-1.6,0-3.2-1.1-4.1-2.4c-0.4-0.6-0.7-1.4-0.8-3.1c-0.3-3.4,0.3-6,0.3-6
		c3.5-15.8,5.2-23.6,5.4-25.8c0-0.4,0.1-1.5,0.8-2.6c0.9-1.7,2.5-2.4,3-2.6c0.6-0.2,2.6-1.1,4.5-0.2c0.8,0.4,1.3,0.9,1.5,1.2
		c0.5,0.5,0.9,1.3,1.1,2.8C815.1,90.3,814.4,93,814.1,94.2z M821,114.3c0.5,0.8,1.1,1.6,1.8,2.5c0.4,0.5,0.8,1,1.2,1.5
		c0.3,0.3,0.7,0.7,1,1c0.4,0.4,0.9,0.8,1.6,1.1c1.3,0.5,2.4,0.3,2.4,0.4c0,0.2-3,0.5-6.2,1.2c-3.8,0.9-6.1,2-6.8,2.2
		c-1.6,0.7-2.8,1.5-3.6,2c-0.4-0.5-1.1-1.1-1.9-1.6c-1-0.6-1.9-1-2.6-1.2c0.4-1.6,0.9-3.8,1.3-6.4c0.1-0.9,0.1-1.2,0.3-2.1
		c0.8-5.5,1.3-6.2,1.9-6.6c0.8-0.6,1.7-0.7,2.7-0.8c0.8-0.1,1.8-0.2,2.7,0.4c0.4,0.3,0.7,0.6,1.2,1.3c0.5,0.6,0.9,1.2,1.4,2.2
		C819.9,112.2,820.4,113.1,821,114.3z M834,133.3c1-0.1,2.5-0.3,4.5-0.5c10.7-0.9,19,0.3,24.6,1.7c3.2,0.8,5,1.5,6.9,2.5
		c3.3,1.9,5.4,4.3,6.4,5.6c1.1,1.3,2.7,3.8,3.8,7.2c0,0,2.1,6.9-0.7,15.7c-0.7,2.4-1.9,4.7-1.9,4.7c-0.6,1.2-1.1,2.2-1.2,2.4
		c-2.1,3.6-7.7,5.8-8.6,6.1c-8.3,3.1-16.3,3.8-18.4,4c-5.6,0.4-9.5,0.1-17.2-0.6c-3.1-0.3-4.6-0.5-6.1-1c-1.4-0.4-2.2-0.9-5.4-1.9
		c-0.6-0.2-1.1-0.3-1.8-0.6c-1.3-0.5-2.4-1-3.6-1.8c-0.7-0.5-1.7-1.4-2.6-2.8c15.5-0.5,31-1,46.6-1.6c2,0.3,3.9-0.3,5-1.8
		s0.9-3.2,0.9-3.7c-0.1-0.6-0.2-1.9-1.3-3c-0.9-0.8-1.8-1-2.3-1.1c-16.2,0.6-32.4,1.2-48.6,1.8c-1.6,0.4-2.4,0-2.7-0.2
		c-1.2-0.8-1.2-2.6-1.1-5.1c0.1-2.5,0.7-3.4,0.9-3.7c0.6-0.8,1.3-1.2,1.8-1.4c2.8,0,4.9,0,6.1,0c17.8-0.1,26.1-1,44-1
		c0.3,0,0.7,0,1,0c1.7-0.4,2.7-1.4,3-3c0.2-1.7,0-3.4-0.5-5c-0.7-0.8-1.5-1.1-2.5-1c-14,0-28,0-42,0c-3,0-6,0-9,0
		c0.2-0.8,0.7-2,1.5-3.2c1.4-2,3.1-3,4.8-3.8c1.8-1,3.5-1.5,7-2.4c3-0.8,4.7-1.1,5.9-1.3C832.3,133.4,833.3,133.3,834,133.3z
		 M863.6,192.5c0.5,0.3,0.5,0.8,0.7,2.7c0.2,2.2,0.4,3.8,0.4,6.4c0,0.8,0,1.7-0.7,2.4c0,0-0.4,0.5-1.2,0.8c-2.2,0.8-21,0.5-21.9,0.5
		c-4,0-8,0-12,0c0.2-3.6-0.5-7-2-10c-0.1-0.2-0.1-0.4-0.2-0.7c-0.5-1.2-1.5-1.9-2.1-2.3c0.7,0.2,1.7,0.4,2.9,0.6
		c1,0.2,1.8,0.3,2.4,0.3c10.4,1.1,15.7,1,15.7,1s5.8-0.1,11.3-1c1.2-0.2,2.3-0.2,3.5-0.5C862.2,192.4,863,192.1,863.6,192.5z"/>
</g>
<g>
	<path class="st4" d="M493,86.3c3.9-0.1,7.8-0.1,11.7,0c3.3,0.1,5.9-0.1,9.6,0.4c1.1,0.1,3,0.4,4.8,0.8c6.5,1.7,10.9,6.3,12.4,7.9
		c5.6,6.1,7.1,12.9,7.5,15.9c0.3,1,0.7,2,1,3c0.9,11.6,1.2,23.3,1,35c-0.3,6.7-0.7,13.3-1,20c-0.1,3-0.3,7.6-0.9,13.3
		c-0.1,1.3-0.2,1.9-0.4,3.2c-1,9-1.2,13.7-1.9,20c0,0-0.2,8.7-1.6,12.8c-0.5,1.6-1.5,2.9-1.5,2.9c-0.7,1-1.5,1.6-2,2
		c-2.2,1.3-4.7,1.4-6.6,0.2c-1.9-1.2-2.4-3.3-2.6-4.3c-0.5-1.8-0.2-3.4,0.1-4.2c0.1-1.3,0.3-2.7,0.4-4c0.3-2.3,0.7-4.7,1-7
		c2.2-20.6,3.2-41.3,3-62c0-5,0-10,0-15c0-4.4-0.3-8.7-1-13c-0.1-0.9-0.3-2.2-0.9-3.7c-1.3-3.1-3.5-5.1-4.8-6
		c-1.9-1.4-3.7-2-5.3-2.2c-6-0.9-12-1.2-18-1c-2.3,0.3-4.7,0.7-7,1c-0.2,0-5.3,0.9-10,2c-3.6,0.8-6.3,1.7-8.2,2.3
		c-2,0.6-1.2,0.4-4.7,1.5c-3.3,1.1-3.9,1.2-5,1.8c-1.4,0.8-3.1,1.7-3.8,3.6c-0.3,0.8-0.1,1.1-0.2,3.2s-0.2,3.9-0.2,5.1
		c0,2.1,0,4.6,0,7.6c1.3,0,2.7,0,4,0c6-0.3,12-0.7,18-1c5.7,0.1,11.4,0.1,17.3,0c3,0,6-0.3,9.4-0.2c0.2,0,0,0,1.9,0.1
		c2.3,0.1,3,0.2,4,0.5c0.2,0.1,0.7,0.3,1.1,0.5c2,1.3,2.6,4.7,2.2,7.2c-0.1,0.4-0.7,4.8-4,6.4c-0.9,0.4-1.7,0.5-2,0.5
		c-6.9,0.6-24,0.5-29.9,0.8c-6.1,0.3-8,0.5-8,0.5c-0.7,0.1-1.8,0.1-3.3,0.2c-1.7,0.1-3.1,0.1-4.2,0.1c-1.8,0-3.5,0.2-5.3,0.2
		c0,0-1.1,0-1.9,0.5c-0.1,0.1-0.3,0.2-0.4,0.4c-0.3,0.4-0.3,0.7-0.3,2.3c0,0.8,0,1.4,0.1,2.5c0,0.3,0,1,0.1,2c0,1,0.1,2.4,0.1,4.2
		c0,1.3,0,2.3,0.1,3c0,1.7,0,2.9,0.1,3.8c0,1.2,0,2.6,0.1,4.3c1.3,0,2.7,0,4,0c2-0.1,4-0.2,6-0.2c1.4,0,2.8-0.1,4.2-0.1
		c2.6-0.1,5.2-0.2,7.8-0.3c5-0.2,13.3-0.6,30.1-1.3c0.2,0,0.8,0,1.5,0.1c2.8,0.6,4.3,3.2,4.4,3.4c1.3,2.3,1.1,5.2-0.4,7.7
		c-0.6,0.7-1.6,1.7-3,2.4c-0.1,0-0.8,0.4-1.6,0.6c-3.6,1.1-11.6,1.1-12.6,1.1c-1.2,0-4,0.1-9.6,0.4c-5.6,0.2-5.1,0.3-7.9,0.4
		c0,0-16,0.6-20.5,1.5c-0.4,0.1-1.3,0.5-1.8,0.7c-0.1,0.1-0.2,0.1-0.3,0.2c-0.4,0.4-0.3,1.1-0.2,2c0.1,0.6,0,1.3,0,1.9
		c0.1,1,0,2.1,0.1,3.1c0.1,2.8,0.2,8.3,0.2,8.8c0.2,10.7,0.3,10.9,0.5,13.1c0.1,0.9,0.2,1.9,0.5,3.2c0.6,3.4-1.5,6.6-4.4,7.3
		c-2.4,0.6-5.1-0.5-6.6-2.8c-0.4-0.9-0.9-2.2-1.4-3.8c-0.2-0.9-0.4-1.7-0.5-2.2c-0.7-4.5-0.8-8-0.8-8c-0.6-21.7,0-69.5,0-69.5
		c0-5.9,0.3-11.8,0.3-17.7c0-2.4,0.1-6.5,0.6-11.8c0.1-1.1,0.2-2,0.4-4.2c0.3-3.3,0.7-6.7,1-10c0.4-6.1,3.4-8.1,9-6
		c0.6,0.5,1.3,1.3,2,2.3c0.7,1.1,1.1,2.2,1.3,3c2.3-0.8,4.6-1.5,7-2.2c2.3-0.7,4.5-1.4,6.7-2c1.3-0.3,2.7-0.7,4-1
		c2.3-0.3,4.7-0.7,7-1C487,87,490,86.6,493,86.3z"/>
</g>
<g>
	<path class="st5" d="M405,96.3c0,3,0,6,0,9c0,1.6,0,2.9,0,3.9c0.9,0,2.4,0,4.1,0c2.8,0,3.4-0.1,4.4-0.1c4.3,0,7.7,0,9.7,2.2
		c1.3,1.4,1.5,3.3,1.7,4.6c0.1,1,0.3,2.7-0.3,4.3c-1.1,2.4-4,3.9-7.5,4.1c-1.8,0.1-3.6,0.2-5.5,0.3c-1.9,0.1-3.7,0.2-5.5,0.3
		c0,1.5,0,3,0,4.6c0,2,0.1,4,0.2,5.8c0,1.5,0,3.1,0.1,4.7c0,1.5,0.1,3,0.2,4.4c7.8,0.1,13.7,0.5,16.4,0.8c0.8,0.1,2.3,0.3,3.8,1.3
		c0.7,0.4,1.5,0.9,2.3,2c1.3,1.9,1,4,0.9,4.9c-0.2,2-1.1,3.4-1.6,4c-0.8,1.1-2,2.6-3.8,2.9c-0.8,0.1-1.3,0-1.5,0
		c-2.4-0.3-27.5-0.4-42.2,0c-1.1,0-3,0.1-5.4,0.2c-0.2,0-5-0.2-6.8-3.5c-0.7-1.5-0.6-3.1-0.6-3.8s0.2-2.8,1.6-4.5
		c1.3-1.6,3.2-1.9,6.9-2.6c1-0.2,3.5-0.4,8.5-0.8c0,0,2.6-0.2,5-0.3c1.2-0.1,2.3-0.1,3.5-0.2c-0.1-2.6-0.2-5.3-0.3-8
		c-0.1-2.5-0.1-5-0.2-7.5c0-1.3,0-2.7,0-4c-3.7,0-7.3,0-11,0c-1.2,0-2.4,0-3.6,0c-1.3,0-2.5,0-3.7,0.1c-0.3,0.5-0.5,1-0.8,1.5
		c-0.3,0.6-0.6,1.2-0.8,1.8c-0.2,0.6-0.5,1.6-1.2,2.5c-0.3,0.4-0.8,1.1-1.7,1.8c-1,0.8-2,1.1-2.6,1.3c-0.5,0-2,0.1-3.5-0.8
		c-2.4-1.5-2.6-4.4-2.6-4.7c0.2-1.2,0.4-2.4,0.6-3.6c0.5-1.7,1.1-3.5,1.9-5.4c0.3-0.9,0.7-1.8,1.1-2.6c1.3-3.7,2.7-7.3,4-11
		c1.8-4.3,3.6-8.6,5.3-12.8c1.3-3.1,4.4-4.7,7.1-4c2.8,0.7,3.9,3.6,4.1,3.8c0.1,0.7,0.2,1.8,0.2,3.1c-0.1,1.7-0.4,3.2-1.4,6.4
		c-0.6,1.8-1.4,4.1-2.5,6.8c1.6,0.1,3.3,0.2,5.1,0.2c1.9,0,3.7-0.2,5.2-0.3c0-1.4-0.1-2.7-0.1-4.1c-0.1-4.8-0.1-9.4,0-14
		c-0.1-0.5-0.1-1.7,0.6-2.9c1.1-1.9,3.2-2.3,3.5-2.3c0.8-0.2,2.9-0.6,5.2,0.3c0.7,0.3,2,0.9,2.8,2.2c0.2,0.3,0.5,1,0.8,3.7
		C404.9,93.3,405,94.7,405,96.3z"/>
</g>
<g>
	<path class="st6" d="M747.9,88c0.4,0.2,1.6,1,2.2,2.4c0.5,1.1,0.5,2.1,0.5,2.4c0,2.3,0.6,19.8,1.3,44c12.4-0.3,21.2-0.5,23.1-0.6
		c0.2,0,0.9-0.1,1.8,0.1c0.3,0.1,1.8,0.4,3,1.7c1.4,1.5,1.5,3.3,1.5,5.2c0,1,0,2.4-0.4,4.1c-0.6,1.1-1.3,2.1-2.1,2.8
		c-0.6,0.5-0.9,0.7-1.3,0.9c-0.9,0.4-1.7,0.4-2,0.4c-1.4,0-6.1,0.4-12.6,0.9c-3.3,0.1-6.7,0.3-10,0.4c0.2,23.8,0.5,47.5,0.8,71.3
		c0,0.5,0.1,2.1-0.9,3.3c-0.8,0.9-1.8,1.1-3.4,1.4c-2,0.4-3.6,0.1-4.3,0c-1.4-0.3-2.3-0.5-3.1-1.3c-1-1.1-1.1-2.5-1.1-3
		c-0.3-23.6-0.6-47.3-1-70.9c-6.8,0.2-13.7,0.3-20.5,0.5c-0.8-0.1-2.1-0.5-3.5-1.4c-0.4-0.3-1.1-0.8-1.7-1.6
		c-1.2-1.7-1.2-3.5-1.1-4.8c0-1.7,0.1-3.8,1.6-5.3c0.8-0.9,1.8-1.2,3.3-1.7c1.6-0.5,3.1-0.7,4-0.7c5.7-0.3,11.3-0.7,17-1
		c-0.4-24-0.7-41.2-1-43.5c0-0.3-0.2-1.3,0.2-2.6c0.1-0.4,0.6-1.9,1.9-3C742.4,86.4,745.8,86.7,747.9,88z"/>
</g>
<g>
	<path class="st7" d="M685.7,88.9c4.1-2.5,12.9,5.1,13.9,6c2.7,2.3,4.7,4.1,5.5,7.1c0.3,1,1.1,4.4-0.9,7.1c-0.4,0.5-1.7,2.1-3.8,2.4
		c-1.6,0.2-2.8-0.4-7.7-3.9c-6.5-4.8-8.2-6.5-9.2-8.8c-0.7-1.6-0.8-2.9-0.8-3.8c0-0.7,0-2.6,1.3-4.4C684,90.5,684.8,89.4,685.7,88.9
		z"/>
</g>
<g>
	<path class="st8" d="M638.3,94.3c3.1-0.4,5.2-0.2,9.4,0.4c0.5,0.1,1.4,0.2,2.3,0.8c2.1,1.2,2.8,3.4,3.1,4.1
		c0.8,2.6,0.2,4.8-0.1,5.7c-0.4,0.4-1,1-1.9,1.6c-1.4,0.8-2.7,1-3.2,1.1c-16.2,2.1-23.2,2.4-23.2,2.4c-5.7,0.2-11.3,0.3-18.6,1
		c-5,0.4-5.3,0.6-11.6,1.2c-3.5,0.3-6,0.5-9.7,1.1c-2.9,0.5-4,0.7-4,0.7c-4.6,0.9-5.6,1.2-7.4,1c-1-0.2-2.7-0.4-4.1-1.8
		c-1.9-1.8-2.1-4.2-2.2-5.3c-0.1-0.9-0.3-3.5,1.4-5.8c1.6-2.2,4-2.9,6-3.5c1.4-0.4,2.6-0.6,2.9-0.6
		C600.2,95.8,629.9,95.5,638.3,94.3z"/>
</g>
<g>
	<path class="st9" d="M350.1,102.8c0.5,0,2.9,0,4.1,1.8c0.8,1,0.7,2.2,0.7,3.7c0,1.8-0.4,3.4-0.9,4.6c-2.3,1.3-4.8,2.8-7.4,4.7
		c-3.4,2.5-6.3,5-8.6,7.3c2.1-0.4,5.6-0.9,9.7,0.3c9.3,2.8,12.8,11.9,13.3,13.2c0.5,2.5,1.1,6.1,1.6,10.5c0.8,7.7,0.6,13.5,0.3,22.5
		c-0.1,4.8-0.4,9.7-0.8,14.5c-0.1,1.5-0.2,2-0.2,2.5c-0.7,5.6-2.8,9.9-4.6,12.6c-6.3,8.1-15.7,11.8-23.7,9.5
		c-4.6-1.3-7.6-4.3-9.3-6.3c-1.8-3.3-2.9-6.1-3.5-7.8c-4.3-11.8-2.9-21.1-0.7-56.1c0-0.5,0.1-1.3,0.1-1.7c0.1-0.7,0.2-1.7,0.5-2.8
		c0.6-2.3,1.4-5.6,4.1-7.9c0.5-0.4,1.2-0.9,2.2-1.4c-0.3-0.5-2.7-3.7-1.7-7.7c0.6-2.4,2.1-3.9,2.8-4.5c0.9-0.8,2.1-1.9,3.8-3.2
		c4.1-3.3,7.5-5.9,12.2-7.2C345.5,103.3,347.5,102.9,350.1,102.8z M345.1,138.9c2.3,1,4,2.7,5,5c2.5,14.3,2.7,28.6,0.5,43
		c-0.5,3.2-1.6,6.2-4.3,8.3c-3,2.3-6.6,2.1-8.3,2c-0.9-0.4-2.2-1.3-3.4-2.7c-1.4-1.6-2-3.2-2.3-4.1c-2-5.5-1.2-15.8-1.1-16.5
		c2,0,4,0,6,0c0.3,0,4.2,0.1,6.6-3.1c2.2-3,1.3-6.3,1.2-6.8c-0.7-2.3-2.2-3.6-2.5-3.9c-1.9-1.5-3.9-1.7-4.6-1.7
		c-2.2-0.2-4.4-0.4-6.7-0.6c0.1-1.1,0.3-2.9,0.5-5c0.2-2.5,0.3-3.4,0.5-5c0.4-2.8,0.6-4.2,1.2-5.1c1.6-2.6,4.6-3.4,6-3.7
		C341.6,138.4,343.7,138.6,345.1,138.9z"/>
</g>
<g>
	<path class="st10" d="M801,126.3c-1,0.2-1.7-0.2-2-1C800.1,124,800.8,124.4,801,126.3z"/>
</g>
<g>
	<path class="st11" d="M705,146.3c0.2,4.7-0.1,9.4-1,14c-1,5.7-2,11.3-3,17c-1.1,7.7-2.1,15.3-3,23c1.1,5.5,2.5,7.1,3.7,7.3
		c1.5,0.2,3.9-1.2,6.3-2.7c0.8-0.5,1.9-1.2,2.9-0.8c0.5,0.2,0.8,0.6,1.1,1.2c0.6,1.3,2.3,6.5-0.8,11.5c-1.4,2.3-3.2,3.5-4.6,4.4
		c-3.3,2.3-6.6,3-8.6,3.2c-1.1-0.1-3.2-0.4-5.3-1.9c-3.3-2.3-4.2-5.8-4.4-6.7c-0.3-1.9-0.8-4.7-1.1-8.1c-1-10.2-0.1-18.1,0.9-26.9
		c0.6-4.8,1.4-11.1,2.9-18.5c1.9-13.2,0.5-17-1.3-17.7c-3.1-1.3-7.9,5.8-12.3,4.2c-2.1-0.7-3.1-3.1-3.7-5c-0.2-0.9-0.4-2.3-0.2-3.9
		c0.6-5.2,4.5-8.4,5.4-9.2c4.2-3.4,8.8-3.5,10.6-3.5c1.1,0,2.4,0,4.1,0.5c5.8,1.7,8.5,7.5,9.4,9.5C703.8,139,704.9,142.1,705,146.3z
		"/>
</g>
<g>
	<path class="st12" d="M659.2,140.4c0.9,0.3,2.6,1.2,3.8,3c1.7,2.7,1.5,6.4-0.4,9.5c-1.2,0.8-2.4,1.6-3.6,2.4
		c-6.2,0.4-12.5,0.7-19,1s-12.9,0.4-19.2,0.5c-1.9,0-4.3,0.2-8.3,0.3c-4.3,0.2-7.8,0.3-10.2,0.3c-2.3,0.1-4.6,0.2-6.8,0.3
		c-0.5,1.4-1,2.9-1.5,4.4c-0.5,1.3-0.9,2.5-1.4,3.7c-0.9,2.1-1.8,4.2-2.7,6.2c-1.2,2.4-2.3,4.7-3.5,7.1c-1.1,2.6-2.1,5.6-3,9.1
		c-0.8,3.1-1.2,5.9-1.5,8.4c-0.1,0.8-0.4,2.6,0.4,4.6c0.7,2.1,2.1,3.3,2.7,3.9c1.2,0.6,2.5,1.2,3.8,1.8c1.5,0.6,2.9,1.2,4.3,1.7
		c1.3,0.4,2.8,0.7,4.5,0.9c3.4,0.4,6.3,0,8.4-0.4c4.5-0.9,10.2-2.5,16.4-5.4c4.7-2.2,8.5-4.6,11.6-6.8c-1.3-2.6-2.7-5.2-4-7.8
		c-1.8-3.7-3.1-7.5-4-11.5c-0.1-0.7-0.2-3.5,1.7-6c1.2-1.5,2.6-2.3,3.4-2.6c0.4-0.1,4.5-1.6,8,1c2.3,1.7,3,4.1,3.2,4.8
		c4.9,8.8,9.9,17.6,14.8,26.5c1.1,2,1.9,3.6,2.5,4.8c2.8,5.9,2.9,7.9,2.8,8.9c-0.1,1.7-0.6,3-1,3.8c-0.2,0.6-0.7,1.5-1.6,2.4
		c-0.9,0.9-1.9,1.3-2.5,1.6c-0.7,0.3-2.8,1.2-4.7,0.8c-0.7-0.2-2.3-0.7-5.3-6.1c-1.1-1.9-2.5-4.7-3.7-8.3c-3.9,3.1-7.6,5.4-10.4,7
		c0,0-8.3,4.7-16.7,6.8c-1.9,0.5-3.7,0.7-3.8,0.8c-1.5,0.2-2.7,0.3-3.3,0.3c-8.8,0.5-13.1,0.8-18.3-0.2c-1.8-0.3-4.4-0.9-7.5-2
		c-2.7-0.8-4.7-1.9-6-2.8c-1.2-0.8-2.2-1.6-4.3-3.4c-0.5-0.4-1.1-0.9-1.8-1.8c-0.3-0.4-0.8-0.9-1.2-1.7c-0.8-1.4-1-2.7-1.2-5.1
		c-0.1-1-0.2-1.8-0.2-1.9c-0.5-8.1,1.1-15.9,1.1-15.9c0.3-1.3,0.5-2.2,0.6-2.6c0.6-2.5,1.3-4.2,2-6c1-2.8,1.7-4.9,2.8-8
		c0.9-2.6,1.6-4.7,2.5-6.7c0.1-0.3,0.4-0.8,0.8-1.7c0.5-1.2,0.7-1.8,1.3-3.2c0.2-0.5,0.5-1.3,1-2.3c-2.8,0.1-5.1,0.3-6.6,0.4
		c-5.6,0.4-8.3,2.1-12,0.9c-0.9-0.3-1.9-0.7-2.9-1.6c-2.9-2.8-2.1-7.4-1.8-8.7c0.3-1.4,0.7-2.1,1-2.6c0.8-1,1.9-1.5,2.7-1.9
		c1.7-0.7,3.2-0.8,3.4-0.8c9.1-0.6,18.2-1.5,27.3-2c1.7-0.1,3.3-0.2,3.3-0.2c2.9-0.2,4-0.5,9.8-0.7c4.5-0.2,9-0.3,13.5-0.5
		C632.3,140.8,645.8,140.5,659.2,140.4z"/>
</g>
<g>
	<path class="st13" d="M420,178.3c0.8,0.8,1.9,2.1,3,3.7c0,0,0.8,1.3,1.4,2.6c2.1,4.5,2.3,12.2,2.3,12.8c0.1,7-0.1,10.5-1.2,14.9
		c-1.8,7.3-6.3,11.6-13.5,13c-0.6,0.2-1.6,0.5-2.7,0.7s-1.9,0.3-2.5,0.3c-2.9,0.3-5.8,0.6-9.6,0.5c-1.3,0-3.1-0.1-4.8-0.2
		c-0.9,0-1.9-0.1-2.3-0.1c-1,0-2.2-0.1-3.1-0.1c-5.7-0.3-7.4-0.6-8.4-0.9c-0.4-0.1-0.8-0.2-1.2-0.3c-1.8-0.6-4.6-1.9-7.4-5.4
		c-0.6-1.1-1.2-2.7-1.7-4.7c-0.4-1.9-0.5-3.6-0.4-4.8c0-7,0-14,0-21c0.2-5.3,1.6-10.3,4-15c1.4-1.4,3-2.1,5-2
		c1.4-0.1,2.2,0.2,2.7,0.5c0.9,0.6,1.1,1.6,2,1.8c0.5,0.1,1-0.1,1.3-0.3c2.3-0.6,5-1.1,8-1.5s5.7-0.5,8.1-0.4
		c6.8-0.2,12.1,0.5,14.9,1.4C415,174.1,416.7,174.7,420,178.3z M392,187.3c3.3-0.2,6.6-0.1,9.9,0.2c0.6,0.1,3.4-0.1,6.1,1
		c0.6,0.3,1.3,0.6,2,1.1c0.9,0.7,1.3,1.4,2,2.6c0.8,1.3,1.5,2.4,1.8,4.1c0.1,0.8,0.1,1.3,0.1,2.1s0,1.1-0.3,3.3
		c-0.2,2.2-0.2,2.4-0.4,3.1c-0.1,0.6-0.3,1.3-0.8,2.2c-0.2,0.5-0.6,1.2-1.3,2c-0.8,0.8-1.5,1.2-1.9,1.3c-3.3,1.6-7.5,1.5-7.5,1.5
		c-3.8,0-8.1,0-12.9-0.1c-0.9-0.2-1.8-0.4-2.8-0.6c-0.9-0.3-2.8-1-4.2-2.7c-0.2-0.2-0.8-1-1.3-2.3c-0.8-1.9-0.8-3.7-0.5-7.5
		c0.1-1.9,0.4-4.2,0.7-6.8c0.1-0.4,0.5-2,1.9-3.2c1.5-1.2,3.1-1.3,3.6-1.3C388.2,187.5,390.1,187.4,392,187.3z"/>
</g>
<g>
	<path class="st2" d="M91.4,54.1c-1,0.2-2,0.4-3,0.6c-0.8,0.2-1.5,0.4-2.3,0.5C55.8,63.3,43,83,47.6,114.2c2,7.3,5.5,13.6,10.5,19
		c2.5,2.7,4.7,4.5,5.6,5.3c2.1,1.7,4.2,3,5.9,4c0.3,0.2,0.6,0.4,1.1,0.5c0.7,0.3,1.4,0.3,1.8,0.2c0-1.3,0.1-3,0.4-5
		c0.9-7.4,3-13,4-15.4c1.8-4.3,3.7-7.2,5.3-9.7c2-3.1,5.4-7.9,10.5-12.9c1-1,5.6-5.5,12.5-10.1c2-1.3,4.6-3,8.1-4.7
		c3.8-1.8,10.2-4.1,18.9-4.7c-0.5,0.8-1.7,2.2-3.6,3.1c-0.9,0.4-1.7,0.6-2.4,0.8c0.3,0.3,0.7,0.7,1,1c-0.8,1.3-1.8,2.5-3,3.5
		c0.2,0.6,0.5,1.1,1,1.5c-1.7,1-3,2.3-4,4c0,1,0,2,0,3c-1.4,2-3.1,3.9-5,5.5c0.9,2.3-0.1,3.5-3,3.5c0.8,0.7,1.1,1.5,1,2.5
		c-4.7,3.5-8.6,7.6-11.8,12.1c0,0-5.3,7.4-8.2,16.9c-0.8,2.7-1.2,4.8-1.3,6.8c-0.2,2.7,0.1,5,0.3,6.6c-3.5-1.1-5.5-1.4-5.8-0.7
		c-0.2,0.3,0.1,0.9,0.8,1.8c-1.4,2.2-3.1,4.2-5,6c0.7,0.3,1.3,0.7,2,1c-1.7,1-3.3,2-5,3c0.7,0.3,1.3,0.7,2,1c-2.3,2.3-4.7,4.6-7,7
		c2.1,0.3,2.4,1.2,1,2.5c-2.2,1-4.6,1.3-7,1c-3.1-0.2-6.1-0.3-9-0.5c-1.6,1.5-3.3,3.3-5.1,5.5c-2,2.5-3.6,4.9-4.9,7.1
		c-1.9,0.3-4.5,0.8-7.5,2.3c-2.2,1-5.2,2.5-7.5,5.7c-1.1,1.5-4.1,5.5-2.9,10.4c1,4.2,4.5,6.5,5.3,7c3.4,2.2,7.6,2.4,10.4,2.6
		c0.5,0,1,0,1.3,0c0.8,0.8,1.1,2.1,0.8,3.2c-0.4,1.2-1.5,2.1-2.8,2.2c0.3,1.5,0.3,2.8,0,4c-1.3,0.7-2.7,1.3-4,2c0.7,0.3,1.3,0.7,2,1
		c-1.6,2.6-3.6,5-6,7c-1.6,0.5-3.3,0.7-5,0.5c-3-0.8-9.7-2.9-15.4-9c-5.1-5.5-6.8-11.2-7.2-12.5c-0.3-1.1-2.5-9.3,0.8-17.8
		c1.1-3,2.7-5.5,2.8-5.7c1.9-3,3.8-5.2,5.4-6.8c0,0,2.8-2.8,6.8-5.5c1-0.7,1.9-1.2,1.9-1.2c1.1-0.6,1.8-0.9,2.5-1.3
		c0.9-0.4,2.1-1.1,3.4-2.2c0.4-1.3,1.1-2.9,2.3-4.6c1.2-1.8,2.5-3.1,3.5-4c-3.8-2.8-20-15-24.4-37.6c0,0-3.9-21.1,7.5-42.8
		C26,79.6,29,74.8,33.8,70c4.9-5,9.9-8.1,13.4-9.9c4.1-2.5,11-6,20.2-7.5c9.5-1.6,17-0.3,19.9,0.3C88.9,53.4,90.4,53.8,91.4,54.1z"
		/>
</g>
<g>
	<path class="st14" d="M149.6,81.1c1,0.1,1.7,0.6,1.7,1.1c0,0.1,0,0.3-0.2,0.5c-2.1,0.3-2.4,1.2-1,2.5c-2,1.9-3.6,4.1-5,6.5
		c0.3,0.3,0.7,0.7,1,1c-1.9,1.4-3.6,3.1-5,5c1.7,0.7,2.5,1.3,2.5,1.8c-0.1,1-3,1.8-8.9,2.4c-0.9,0.1-1.7,0.1-2.6,0.3
		c-4.6,1-8.2,1.9-9.7,2.6c-3.3,1.3-6.1,2.9-8.3,4.4c-0.1,0-0.9-0.2-1.3-1c-0.5-0.8-0.2-1.6-0.2-1.7c0.7-0.6,1.4-1.4,2.2-2.2
		c0.4-0.4,0.8-0.9,1.1-1.3c0.7-0.6,1.6-1.4,2.4-2.6c0.8-1.1,1.3-2.2,1.6-3c0.2-0.9,0.3-1.9,0.5-2.8c0.6-0.8,1.2-1.6,1.8-2.4
		c0.4-0.5,0.8-1,1.1-1.5c0.1,0,0.5-0.1,0.6-0.4c0.2-0.4,0.1-1-0.4-1.3c0.4-0.5,0.8-1,1.2-1.6c0.4-0.5,0.7-1.1,1-1.5
		c-0.1-0.3-0.2-0.7-0.3-1c0.3-0.3,0.6-0.7,0.9-1c0.1-0.1,0.2-0.3,0.4-0.4c-0.1-0.2-0.2-0.6-0.6-0.9c-0.6-0.6-1.2-0.7-1.5-0.8
		c3.5-0.7,7.6-1.2,12.3-1.4C141.8,80.3,146,80.6,149.6,81.1z"/>
</g>
<g>
	<path class="st15" d="M141.6,81.1c4.4-0.4,10.6-0.4,17.4,2c1.9,0.7,3.6,1.4,5.1,2.2c0.1,0.6,0.4,1.1,1,1.5
		c-3.1,3.8-5.6,7.9-7.5,12.5c-1.7,1.6-3.6,2.9-5.5,4c-1.4-0.3-6.1-1.1-10.7-1.4c-1.1-0.1-2.8-0.2-5.2-0.1c-1.1,0-2,0.1-2.6,0.2
		c0.5-0.5,1.4-1.3,2.6-1.9c1.1-0.5,2.2-0.8,2.9-0.9c0.7,0.2,1.4-0.2,1.5-0.6c0.1-0.3-0.1-0.7-0.4-0.9c0.6-0.9,1.4-1.7,2.2-2.7
		c0.8-0.9,1.5-1.6,2.3-2.3c-0.1-0.4-0.2-0.9-0.3-1.3c0.1-0.9,0.4-2.3,1.3-3.8c0.7-1.3,1.6-2.2,2.2-2.8c0-0.2,0.1-0.7-0.3-1.3
		c-0.2-0.4-0.6-0.6-0.7-0.6c0.6-0.2,0.9-0.4,0.9-0.5s-0.6-0.2-1.6-0.2c-0.4,0.1-1.1,0.3-2,0.2C142.8,82.2,141.9,81.4,141.6,81.1z"/>
</g>
<g>
	<path class="st16" d="M161.6,84.1c2.7,1,5.5,2.3,8.5,3.9c1.5,0.8,2.9,1.6,4.2,2.4c1.7,2.5,2.3,5.2,1.3,6.6
		c-0.6,0.8-1.8,1.6-2.8,2.1c-0.6,0.3-1,0.5-1.4,0.6c0,0.1,0,0.3,0.2,0.5c0.2,0.3,0.6,0.4,0.7,0.4c-0.9,0.9-1.9,2-2.9,3.3
		c-0.9,1.2-1.7,2.4-2.2,3.4c-0.1,0.3-0.3,1-0.9,1.3c-0.6,0.3-1.2,0.2-2-0.1c-1.7-0.6-2.9-1.3-3.3-1.5c0,0-1.3-0.8-3.8-1.9
		c-1.1-0.5-2.8-1.2-5-1.7c0.4-0.7,1.1-1.6,2.1-2.5c1.1-0.9,2.1-1.5,2.9-1.8c0.5-1.8,1.4-4.4,3.1-7c1.4-2.3,3-3.9,4.3-5.1
		c-0.1,0-1.1,0.4-1.9-0.2C161.7,86.1,161.4,85.1,161.6,84.1z"/>
</g>
<g>
	<path class="st17" d="M174.1,90.3c1.6,1,3.3,2.1,5,3.2c1.4,0.9,2.7,1.9,4,2.8c0.5,0.7,1.1,1.6,1.6,2.7c0.5,0.9,0.8,1.8,1,2.6
		c-1.4,1.1-3.8,3.2-5.6,6.6c-1.6,3.1-2.1,5.9-2.3,7.6c-0.7,0.1-1.7,0.2-2.8,0.2c-1,0-1.8-0.2-2.5-0.3c-0.7-0.6-1.7-1.4-3-2.5
		c-1.5-1.3-1.6-1.5-2.4-2.2c-2.7-2.3-5.4-3.7-5.3-3.6c0.4,0.2,1.5,0.7,2.8,0.6c1.1-0.1,1.9-0.5,2.3-0.8c1.3-2.4,3-4.6,5-6.5
		c-0.7-0.3-1.3-0.7-2-1c1.8-0.2,3.1-1,4-2.5C174.9,95.8,174.9,93.5,174.1,90.3z"/>
</g>
<g>
	<path class="st18" d="M183.1,96.3c1.5,1.4,3.5,3.4,5.8,5.8c0.2,0.2,2.9,3,4,5.6c0.3,0.8,0.5,1.4,0.5,1.6c0.3,1.3,0.2,2.3,0.1,3
		c-1.7,3.4-3.9,6.6-6.5,9.5c0.3,0.3,0.7,0.7,1,1c-2.7,1-3.7,2.7-3,5c-0.7,1-1.7,1.5-3,1.5c-0.8-2.1-2-4.9-4.1-7.8
		c-2-2.8-4.2-4.8-5.9-6.2c0.9-0.1,1.9-0.3,3-0.5c0.6-0.1,1.2-0.3,1.8-0.4c0.3-1.7,1-4.2,2.6-7c1.6-2.7,3.5-4.6,4.8-5.7
		c-0.3-0.4-0.9-1.3-1.2-2.6C182.8,97.9,183,96.8,183.1,96.3z"/>
</g>
<g>
	<path class="st19" d="M190.4,103.7c1.8,1.8,4,4.3,6,7.4c1.7,2.6,2.8,5.1,3.7,7.2c0.4,0.1,0.8,0.2,1.2,0.4c0.6,0.3,1.2,0.6,1.6,0.9
		c-1.9,3.6-4,7.4-6.3,11.2c-2.2,3.6-4.4,7-6.6,10.1c0.2,0.3,0.4,0.5,0.7,0.8c-0.2,0.5-0.7,1.2-1.5,1.9c-0.6,0.5-1.1,0.7-1.5,0.9
		c-0.2-0.1-0.4-0.2-0.7-0.4s-0.4-0.3-0.5-0.3c-0.6-0.5-0.8-1-0.9-1.3c-0.5-2.1-1-4.3-1.6-6.5c-0.6-2.3-1.2-4.5-1.9-6.6
		c0.6-0.7,1.3-1.5,1.9-2.2l0,0c0-0.5,0-1.5,0.5-2.5c0.6-1.4,1.7-2.1,2.1-2.4c-0.1-0.4-0.2-0.7-0.3-1.1c1.3-1.4,3-3.7,3.9-6.8
		c0.2-0.8,0.4-1.5,0.5-2.2c0.2-0.8,0.3-1.8,0.4-2.8C191.3,106.9,190.8,105,190.4,103.7z"/>
</g>
<g>
	<path class="st20" d="M252.1,115.4c-0.6,0.3-2.5,1.3-4.9,0.8c-0.9-0.2-1.6-0.5-2.1-0.9c-2.2,3-3.7,6-4.5,9
		c-1.7-0.8-1.8-0.3-0.5,1.5c-2.2,0.4-2.8,1.4-2,3c-0.9,0.7-1.5,1.5-2,2.5c-3.5,0.7-6.8,1.3-10,2c-0.9,0-1.8,0.1-2.8,0.3
		c-1.2,0.2-2.2,0.4-3.2,0.7c2.2-3.5,4.1-7.5,5.5-12c1.8-1.8,4-3,6.5-3.5c-2.4-1.6-2.4-2.3,0-2c0.6,0.8,1.1,1.6,1.5,2.5
		c4.3-3.8,3.3-6.1-3-7c-2,0.3-4.1,0.6-6.2,0.8c-5.3,0.7-10.5,1.3-15.7,1.8c4.8-1.7,12.6-3.8,22.2-3.6
		C240.2,111.6,247.5,113.7,252.1,115.4z"/>
</g>
<g>
	<path class="st21" d="M220.1,134.3c-4.9,1.8-9.6,4.3-14,7.5c-5.7,5.2-11.3,10.3-17,15.5c-0.7-2.4-1.4-4.9-2-7.5
		c-0.6-2.6-1.1-5-1.5-7.4c0.2-0.3,0.5-0.4,0.8-0.3c0.2,0.1,0.3,0.2,0.3,0.2c0.2,0.1,0.4,0.3,0.6,0.5c0.2,0.1,0.3,0.3,0.4,0.4
		c0.3-0.3,0.6-0.6,0.9-0.9c0.3-0.3,0.6-0.5,0.9-0.8c-0.2-0.4-0.3-0.9-0.5-1.3c1.7-3.3,3.6-6.9,5.9-10.6c2.2-3.6,4.3-6.8,6.5-9.8
		c-0.1,0-0.6-0.1-1-0.6s-0.3-1-0.3-1.1c1.7-0.8,3.7-1.6,5.7-2.4c4.8-1.7,9.3-2.7,13.1-3.2c2.3-0.4,5-0.7,7.9-0.7c0.6,0,2,0,3.7,0.2
		c3.5,0.4,5.3,0.6,6.1,1.9c1.1,1.6,0.1,4.1-0.3,4.9c-0.1,0.3-0.3,0.7-0.7,1.2c-0.3,0.3-0.9,0.9-1.7,0.8c-1-0.1-1.4-1.1-1.4-1.2
		c-0.8,0.3-1.7,0.8-2.6,1.4c-1,0.6-1.9,1.3-2.6,1.9c-0.2,1.3-0.6,3.5-1.9,5.9C223.7,131.9,221.3,133.5,220.1,134.3z"/>
</g>
<g>
	<path class="st22" d="M242.4,113c4.3,0.6,10.2,1.9,16.4,5.2c2.4,1.3,4.6,2.7,6.4,4.1c0.3,0.5,0.7,1.1,1.1,1.6
		c0.4,0.6,0.9,1,1.3,1.5c-0.8,1.7-1.7,3.5-2.7,5.4c-1.2,2.2-2.5,4.2-3.7,6c-0.4,0.1-0.9,0.3-1.4,0.7c-0.2,0.2-0.4,0.4-0.6,0.6
		c0.1,0.2,0.4,0.6,0.4,1.1c0,1.1-1,1.8-1.1,1.8c-1.1-0.1-2.7-0.4-4.5-1.2c-1.5-0.6-2.5-1.3-2.8-1.5c-3.9-2.5-10.7-3.7-13.5-4.2
		c-3.8-0.7-7.6-0.9-11.5-0.8c1.3-0.5,2.8-1,4.5-1.5c1.9-0.5,3.6-0.8,5.1-1c0.3-0.5,0.7-1,1.1-1.6c0.2-0.2,0.4-0.5,0.6-0.7
		c-0.1-0.2-0.3-0.9,0.1-1.8c0.5-1.1,1.7-1.3,1.8-1.3c-0.6-0.5-0.6-1.3-0.3-1.7c0.3-0.2,0.7-0.2,1.2,0c0.3-1.3,0.8-2.8,1.5-4.4
		c0.7-1.7,1.4-3.2,2.2-4.4C243.3,114.4,242.8,113.7,242.4,113z"/>
</g>
<g>
	<path class="st23" d="M133.6,118.4c0.5,1.5,1.1,3.8,1.4,6.6c0.9,12.4-7.6,21.9-12.4,27.8c-6.1,7.4-14.3,13.2-24.6,17.2
		c0.2-0.9,0.6-1.9,1-3c0.5-1,0.9-1.9,1.4-2.7c-0.2-0.4-0.4-0.7-0.6-1.1c0.6-0.1,2.3-0.4,2.4-0.9c0-0.1-0.1-0.4-1.1-0.8
		c0.2-0.4,0.4-0.9,0.7-1.4c0.1-0.2,0.2-0.4,0.3-0.6c0.4-0.8,1-2,1.9-3.1c0.7-0.8,1.4-1.5,2-1.9c0.2-0.4,0.4-0.8,0.5-1.3
		c0.3-0.8,0.4-1.6,0.4-2.2c0.5-0.1,1.2-0.3,2-0.8c0.9-0.6,1.5-1.3,1.8-1.7c-0.7-0.1-1.3-0.6-1.4-1.2c-0.2-0.8,0.3-1.7,1.2-1.9
		c-0.4-0.1-0.7-0.1-1.1-0.2c-0.5-0.1-1-0.1-1.5-0.2c5-1.7,8.7-3.8,11.2-5.5c2.8-1.9,6.3-4.3,9.5-8.6c2.1-2.8,3.6-5.8,4.5-9
		c0.2-0.6,0.4-1.3,0.5-2.1C133.6,119.4,133.6,118.9,133.6,118.4z"/>
</g>
<g>
	<path class="st24" d="M265.1,122.3c1.1,0.8,2.3,1.8,3.6,2.8c1.3,1.1,2.4,2.2,3.4,3.2c1.6,1.7,3,3.7,4,6c-2.5,3.2-4,6.6-4.5,10
		c-0.3-0.3-0.7-0.7-1-1c-1.1,1.3-1.3,2.4-0.5,3.5c-1.3,0.7-2.3,1.7-3,3c-1.3,0.2-2.7,0-4-0.5c-1.3-2-3.2-4.5-6.1-6.9
		c-2.1-1.8-4.2-3.1-5.9-4.1c2.6,1.3,5.1,1.9,7.5,2c0.6-0.9,0.5-1.8-0.5-2.5c0.9-0.4,1.8-0.9,2.5-1.5c2.4-4,4.5-7.7,6.5-11
		c-0.4-0.3-1.1-0.8-1.6-1.7C265.3,123.1,265.2,122.6,265.1,122.3z"/>
</g>
<g>
	<path class="st25" d="M227.6,143.9c0.4,0.1,0.7,0.3,0.7,0.7c0.1,0.3-0.2,0.6-0.2,0.7c-1.2,1.6-2.5,3.1-4,4.5c-0.3,1.2-0.3,2.5,0,4
		c-2.2,2.5-4.5,5.2-7,8c1.1,2.7,0.1,4.5-3,5.5c0.2,0.6,0.5,1.1,1,1.5c-2.7,1-3.7,2.7-3,5c-1.3,2.7-3.3,4.7-6,6
		c1.2,0.9,1.2,1.7,0,2.5c-1,0.5-1.8,1.1-2.5,2c-0.3-0.9-0.8-1.6-1.5-2c-0.6-2.8-2.2-12,2.8-21.6
		C211.8,147.4,225.6,144.3,227.6,143.9z"/>
</g>
<g>
	<path class="st26" d="M225.7,144.4c0-0.1,6-1.7,12.4-0.9c2.8,0.4,9.9,1.8,17.2,9.9c-1.4,0.4-3.3,1.1-5.3,2.3c-1.7,1-3,2.2-4,3.1
		c0.6,0.8,0.5,1.3,0.5,1.5c-0.2,1-1.6,1.9-3.5,1.7c-1-0.9-2.6-2.2-4.9-3.1c-6.1-2.3-13.5-0.1-17.9,4.8c-4,4.4-4.4,9.6-4.4,10.9
		c-0.2,5.7,2.5,11.9,7.7,15c1.9,1.1,3.7,1.6,4.9,1.8c-0.5,1.7-1.3,4-2.8,6.4c-1.2,1.9-2.4,3.4-3.5,4.5c-0.8-0.1-1.9-0.1-3.1,0.1
		c-0.9,0.1-1.6,0.3-2.2,0.6c-2.2-1.2-6.2-3.8-9.6-8.5c-3.5-4.9-4.7-9.7-5.1-12.2c0.1,0,0.7,0,1.1,0.4c0.5,0.5,0.4,1.1,0.4,1.2
		c0.2-0.3,0.4-0.5,0.6-0.8c0.5-0.6,1-1,1.5-1.3c0.1-0.1,0.4-0.3,0.6-0.6c0.2-0.5-0.1-1.2-0.6-1.6c0.9-0.4,2.3-1.2,3.6-2.5
		c1.3-1.2,2.1-2.5,2.6-3.4c-0.1-0.3-0.5-1.3-0.1-2.5c0.6-1.9,2.7-2.4,2.8-2.4c-0.1-0.1-0.3-0.2-0.4-0.3c-0.5-0.5-0.6-1.2-0.6-1.5
		c0.1,0,2.3-0.3,3.2-2.3c0.6-1.4,0.1-2.8,0-3c1.1-1.4,2.3-2.7,3.4-4.1c1.1-1.3,2.2-2.6,3.2-3.9c-0.1-0.5-0.2-1.1-0.2-1.8
		c0-0.8,0.2-1.5,0.3-2c0.6-0.6,1.2-1.3,1.8-2c0.7-0.8,1.2-1.6,1.8-2.3c-0.1-0.1-0.2-0.1-0.3-0.2C226.4,145,226,144.7,225.7,144.4z"
		/>
</g>
<g>
	<path class="st27" d="M90.9,144.8c0.3,0.1,0,1.6-0.2,2.9c2.8-0.1,6-0.3,9.5-0.9c2.9-0.5,5.6-1.2,7.9-1.9c1.1-0.1,2.1,0,3,0.5
		c-2.4,1.3-2.4,2.3,0,3c-0.9,1.6-2.2,2.6-4,3c-0.3,1.2-0.3,2.5,0,4c-2.2,0.6-3.9,1.9-5,4c1.1,1,0.8,1.7-1,2c2.4,1,2,1.6-1,2
		c0.3,0.3,0.7,0.7,1,1c-1.6,1.5-2.6,3.3-3,5.5c-3.7,1.5-8.9,3.2-15.3,4c-10.6,1.3-19.9-0.3-19.8-0.7c0-0.2,2-0.4,11.1-0.2
		c1.4-1.3,1.1-2.2-1-2.5c2.3-2.4,4.7-4.7,7-7c-0.7-0.3-1.3-0.7-2-1c1.7-1,3.3-2,5-3c-0.7-0.3-1.3-0.7-2-1c1.9-1.8,3.6-3.8,5-6
		c-1.3-1.8-1.2-2.3,0.5-1.5c1.9-2.3,2.9-4,3.5-5.2C90.4,145.4,90.7,144.7,90.9,144.8z"/>
</g>
<g>
	<path class="st28" d="M272.1,128.3L272.1,128.3c0,0,3.3,3.4,3.7,3.9c2,2.4,4.9,5.8,7.9,10.8c1,1.6,2.3,3.8,3.7,7
		c0.9,2.1,1.9,4.5,2.7,7.3c2.1,7.1,2.6,13.6,2.4,18.9c-2.1,0.1-3.9,1.3-4.7,3c-0.6,1.3-0.4,2.5-0.3,3.1c-3.2,4.5-6,8.5-8.5,12
		c-0.1,2.5-0.1,5,0,7.5c-1.3,0.7-2.7,1.3-4,2s-1.3,1.3,0,2c-1.3,0.3-2.7,0.7-4,1c1.1,1,0.8,1.7-1,2c1.3,2.5,1,4.8-1,7
		c0.5,0.4,0.8,0.9,1,1.5c-1.5,1.4-3,1.7-4.5,1c-1.4,1.8-1.6,3.8-0.5,6c-1.3,0-2.7,0-4,0c0.1,1.5-0.3,2.8-1,4
		c-7.4,4.2-15.4,6.7-24,7.5c-35.3,0.5-70.7,0.7-106,0.5c1.4-1,3.1-1.3,5-1c3.7,0,7.3,0,11,0c4.7,0,9.3,0,14,0s9.3,0,14,0
		c5,0,10,0,15,0c9.3,0,18.7,0,28,0c7.6,0.7,14.9-0.2,22-2.5c-0.8-1.6-0.2-2.6,2-3c-0.3-0.3-0.7-0.7-1-1c2.1-0.9,2.8-2.3,2-4
		c2.4-2.9,4.8-5.9,7-9c-1.3-2.1-0.6-3.4,2-4c-1.3-0.5-2.6-0.7-4-0.5c3.2-1.5,14.9-7.6,20.7-21.4c5.8-13.7,2.5-27.4-1.8-35.8
		c-1.1-2.1-2.2-3.8-2.9-4.9c1.3,0.5,2.7,0.7,4,0.5c0.7-1.3,1.7-2.3,3-3c-0.8-1.1-0.6-2.2,0.5-3.5c0.3,0.3,0.7,0.7,1,1
		c0.5-3.4,2-6.8,4.5-10c-3-1-3.8-2-3.9-2.8C272.1,130.8,272.3,128.5,272.1,128.3z"/>
</g>
<g>
	<path class="st29" d="M250.1,149.3c1.9,1.1,4.9,3.3,7.5,6.8c3.7,5,4.5,10.1,4.8,12.5c-4.8,0.1-9.5,0.1-14.3,0.2
		c-1.8-3.4-4.1-6.2-7-8.5c0.2-0.2,1-0.6,1.9-0.5c0.8,0.1,1.4,0.4,1.6,0.6c0.1,0,0.6-0.3,0.8-0.9c0.3-0.7-0.1-1.4-0.2-1.4
		c0.9-1.4,1.7-2.9,2.6-4.5C248.7,152.1,249.4,150.7,250.1,149.3z"/>
</g>
<g>
	<path class="st30" d="M237.7,170.4c2.4,2.5,2.4,6.7,0.3,9.3c-2.5,3-7.4,3.6-10.3,0.8c-2.7-2.5-2.7-6.9-0.4-9.7
		C229.9,167.8,234.9,167.5,237.7,170.4z"/>
</g>
<g>
	<path class="st31" d="M212.3,199.6c2.3-1.5,5.1-1.7,7-0.3c1.1,0.8,1.6,1.9,1.8,2.5c2.2-2.7,4.2-5.5,6-8.5c-0.7-0.3-1.8-0.9-2.8-2.1
		c-0.6-0.7-1-1.4-1.3-1.9c0.2,0.1,0.4,0.2,0.7,0.3c1.9,0.9,7.3,3.3,13.6,1.3c7.4-2.4,10.1-8.9,10.5-9.8c5,0,9.9-0.1,14.9-0.1
		c-0.4,2.6-1.6,8.7-6.4,14.6c-4.9,6-10.7,8.4-13.2,9.3c-6.2,1.5-12.6,1.9-19,1c-1.1-0.2-2.3-0.6-3.5-1
		C216.9,203.3,214.1,201.3,212.3,199.6z"/>
</g>
<g>
	<path class="st32" d="M290.1,157.3c3.3,13.1,3.3,25.2-0.2,36.1c-1.4,4.4-6.6,20.1-21.8,30.4c-3.1,2.1-6,3.6-8.1,4.5
		c-0.2-0.6-0.4-1.7,0-3c0.1-0.5,0.3-0.9,0.5-1.2c1.4,0,2.8,0,4.1,0c-0.2-0.5-0.8-1.7-0.6-3.3c0.2-1.4,0.8-2.3,1.1-2.7
		c0.3,0.1,1,0.4,2,0.3c1.1-0.2,1.8-0.8,2-1.1c0-0.2-0.1-0.6-0.3-1c-0.4-0.6-1-0.8-1.2-0.9c0.3-0.2,1.8-1.2,2.2-3.2
		c0.3-1.7-0.4-3-0.6-3.3c0.6-0.2,1-0.7,1.2-1.2c0.1-0.6-0.2-1.1-0.2-1.2c0.6,0,1.5,0,2.6-0.5c0.3-0.2,0.6-0.3,0.8-0.5
		c-0.1-0.2-0.3-0.5-0.2-0.8c0.1-0.6,0.8-0.9,1.2-1.1c0.8-0.4,1.8-1,3.2-2c0.1-1.2,0.3-2.4,0.4-3.7c0.1-1.4,0.2-2.7,0.2-3.9
		c0.7-1.7,1.6-3.8,3.1-5.9c1.8-2.6,3.7-4.5,5.2-5.8c-0.1-0.5-0.2-2,0.6-3.5c1-1.9,2.7-2.5,3.1-2.6c0.4-2.5,0.8-5.5,0.8-9
		C291.1,163.2,290.7,159.9,290.1,157.3z"/>
</g>
<g>
	<path class="st33" d="M49.5,215c0.5,0.2,0.9,0.3,1.1,0.3c7.6,1.9,12.3-0.9,22.6-0.9c0.2,0,0.3,0,0.6,0c-0.7,1-1.9,2.9-2.6,3.9
		c-0.4,0.7-1.6,2.4-2,3c0.2,0.6,0.5,1.1,1,1.5c-1.7,1.3-3.3,2.7-5,4c0.5,0.4,0.8,0.9,1,1.5c-0.7,0.6-1.7,1.6-2.5,3
		c-1.1,1.8-1.5,3.6-1.6,4.6c-15.7-0.4-22.2-0.6-22.8-0.5c0,0-0.1,0-0.3,0c-0.4,0-1,0-1.8-0.2c-0.3-0.1-0.6-0.1-0.9-0.2
		c-0.2-0.1-0.9-0.2-1.9-0.5c-1.4-0.5-2.8-1-3.4-1.3c1.8,0.2,3.8,0.3,5.9,0.2c0.7,0,1.3,0,1.9-0.1c0.8-0.4,2.1-1.3,3.2-2.9
		c0.9-1.3,1.4-2.5,1.6-3.4c-0.2-0.1-0.4-0.2-0.6-0.2c-0.5-0.2-0.9-0.4-1.2-0.6c0.7-0.6,1.5-1.2,2.6-1.7c0.7-0.4,1.4-0.7,2-0.9
		c0.1-0.5,0.1-1,0.1-1.6c0-0.9-0.1-1.7-0.2-2.3c0.1,0,2.1-0.1,3-1.8C50,216.5,49.5,215.2,49.5,215z"/>
</g>
<g>
	<path class="st34" d="M71.4,214.4c6.2,0,12.5,0,18.7,0c-1.9,2.3-4.1,4.3-6.6,6c-0.3,1.2-0.3,2.4,0,3.8c-1.1,0.9-2.2,1.8-3.3,2.7
		c0.7,0.4,1.5,0.7,2.2,1.1c-0.9,0.4-2.7,1.3-4.3,3.2c-1.6,1.9-2.1,3.9-2.3,4.9c-0.8,0-1.8,0-2.9,0c0,0-0.6,0-1.2,0
		c-1.5,0-6.1-0.1-12.4-0.4c0.2-1,0.7-2.4,1.6-3.9c0.9-1.6,2-2.6,2.7-3.3c-0.2-0.6-0.6-1.2-1.1-1.6c1.8-1.5,3.7-2.9,5.5-4.4
		c-0.5-0.5-0.9-1-1.1-1.6C68.4,218.7,69.9,216.5,71.4,214.4z"/>
</g>
<g>
	<path class="st35" d="M116.4,214.4c6.7,0,13.4,0,20.1,0c-3,4.1-6.2,8.1-9.4,12.1c-2.2,3.2-3.7,6.3-4.4,9.3
		c-6.7,0.5-13.4,0.7-20.1,0.5c2.1-5.1,5.7-9.8,10.7-14.3c0.8-1,0.6-2-0.6-2.7C114.6,218.1,115.9,216.4,116.4,214.4z"/>
</g>
<g>
	<path class="st36" d="M143.1,214.3c8.4,0,16.7,0,25.1,0c-2.1,1-2.1,1.9,0,2.8c-1.8,0.4-3.4,1-4.8,1.7c-1.6,2.7-3.9,5.9-7.1,9.2
		c-4,4.1-8.1,6.7-11.2,8.4c-7.1,0-14.1,0-21.2,0c0.1-0.4,0.3-1.3,1-2.1c1.1-1.3,2.5-1.6,2.9-1.6c-0.6-0.4-1.3-0.7-1.9-1.1
		c2.5-3.2,6-6,10.6-8.3c0.9-1.4,1.3-2.9,1-4.4c2,0.2,4,0,5.8-0.6C141.8,217,141.8,215.7,143.1,214.3z"/>
</g>
<g>
	<path class="st37" d="M157.9,214.3c5,0,10,0,14.9-0.1c-3.6,6.3-7.9,12.7-12.8,19.4c0.7,0.4,1.4,0.7,2.1,1.1c-1,0.3-1.7,0.9-2.1,1.7
		c-5,0-10,0-14.9,0c4.9-5.4,8.3-11.3,10.1-17.7c0.8-0.7,1.7-1.2,2.7-1.7c-0.5-0.2-0.9-0.7-0.9-1.3
		C157,215.1,157.3,214.5,157.9,214.3z"/>
</g>
<g>
	<path class="st38" d="M171.5,214.2c5.2,0,10.4,0,15.6,0c-3.9,7-8.4,14.3-13.5,22.2c-4.9,0-9.7,0-14.6,0c0.4-0.8,1.1-1.4,2.1-1.7
		c-0.7-0.4-1.4-0.7-2.1-1.1C163.8,226.9,168,220.5,171.5,214.2z"/>
</g>
<g>
	<path class="st39" d="M186.2,214.1c4.3,0,8.7,0,13,0c-2.3,4.4-4.8,8.6-7.6,12.7c0.5,0.5,0.9,1,1.1,1.7c-2.3,2.1-3.7,4.7-4.3,7.7
		c-5.4,0.1-10.9,0.1-16.3,0.2c2.5-3.6,5.1-7.5,7.6-11.5C182,221.2,184.2,217.6,186.2,214.1z"/>
</g>
<g>
	<path class="st40" d="M198.5,214.1c5.5,0,11,0,16.5-0.1c5.6,0,11.2-0.1,16.7-0.2c-1,1.9-2.1,4-3.1,6.2c-0.8,1.7-1.5,3.4-2.2,5
		c-0.4-0.4-0.8-0.7-1.1-1.1c-1.8,1.1-2,2.4-0.6,3.8c-2.3,1.5-4.2,3.3-5.7,5.5c0.8,0.4,1.5,0.7,2.3,1.1c-1,0.3-1.8,0.9-2.3,1.6
		c-10.7,0.1-21.4,0.1-32.1,0.2c0.2-1,0.7-2.4,1.5-3.9c1.1-1.9,2.3-3.2,3.2-4c-0.2-0.6-0.6-1.2-1.1-1.6c1.4-1.9,2.8-4,4.2-6.2
		C196,218.3,197.3,216.1,198.5,214.1z"/>
</g>
<g>
	<path class="st41" d="M86.5,214.4c10.2,0,20.4,0,30.6,0c-0.4,2.1-1.5,3.7-3.4,4.9c1.1,0.8,1.3,1.7,0.6,2.7
		c-4.5,4.5-7.7,9.2-9.6,14.3c-5.4,0-10.9,0-16.4-0.1c-5.5,0-10.9-0.1-16.4-0.1c0.2-1,0.7-2.8,2.2-4.6c1.7-2.1,3.7-3,4.6-3.4
		c-0.8-0.4-1.5-0.7-2.3-1.1c1.1-0.9,2.3-1.8,3.4-2.7c-0.3-1.4-0.3-2.7,0-3.8C82.3,218.6,84.6,216.6,86.5,214.4z"/>
</g>
<path class="st39" d="M171.3,235.5"/>
<path class="st25" d="M202.8,183.4"/>
</svg>
