<?xml version="1.0" encoding="utf-8"?>
<!-- Generator: Adobe Illustrator 25.0.1, SVG Export Plug-In . SVG Version: 6.00 Build 0)  -->
<svg version="1.1" id="图层_1" xmlns="http://www.w3.org/2000/svg" xmlns:xlink="http://www.w3.org/1999/xlink" x="0px" y="0px"
	 viewBox="0 0 28 28" style="enable-background:new 0 0 28 28;" xml:space="preserve">
<style type="text/css">
	.st0{fill-rule:evenodd;clip-rule:evenodd;}
	.st1{fill-rule:evenodd;clip-rule:evenodd;fill:#2A65F5;}
	.st2{fill-rule:evenodd;clip-rule:evenodd;fill:#00DCFF;}
	.st3{fill-rule:evenodd;clip-rule:evenodd;fill:#FFFFFF;}
</style>
<g>
	<path class="st0" d="M67.1,6.3V21h1.4v1.5h-2.9v-8.3H62v8.4h-1.5v-8.4h-3.3v-1.5h3.3v-5h-2.9V6.3H67.1L67.1,6.3z M91.6,5.7V9h2.2
		v1.4h-2.2v2.3h0.8v0.1l1.4,3.3v0.1l0,0l0,0h-1.4l-0.8-1.8v8.5h-1.5v-7.5c-0.6,1.6-1.5,3.3-2.6,4.7h-0.1l0,0l0,0v-2.5
		c1.4-2.3,2.3-4.4,2.6-6.7l0.1-0.4h-2.2V9h2.3V5.7H91.6z M55.9,10.8v9.1l2.6-2h0.1l0,0v1.6l-4.2,3.2l-0.8-1.1l0.7-0.5l0.1-0.1v-8.7
		h-2.1v-1.5L55.9,10.8L55.9,10.8z M78.8,5.8v2.6H86V10h-2.4c-0.7,3.1-2.1,5.9-4.3,8c1.7,1.3,3.8,2.3,6.2,3l0.5,0.1l0,0l0,0v1.6l0,0
		l0,0l0,0l0,0c-3-0.7-5.5-1.8-7.6-3.4c-0.1-0.1-0.2-0.2-0.3-0.2c-0.1,0.1-0.3,0.2-0.4,0.3c-2.1,1.6-4.6,2.7-7.5,3.4
		c0,0-0.1,0-0.1-0.1l0,0v-1.6c2.6-0.6,4.9-1.7,6.7-3.1c-1.2-1.2-2.2-2.6-3-4.2c-0.5-1.1-0.9-2.2-1.2-3.3L72.4,10H70V8.4h7.2V5.8
		H78.8L78.8,5.8z M40.1,6.4v16.3h-2.5l-0.4-1.3c0-0.1,0-0.1,0-0.1l0,0h1.4V17h-1.9c0,1.3-0.1,3.1-0.5,5.3l-0.1,0.4h-1.4
		c-0.1,0-0.1,0-0.1-0.2c0.4-1.6,0.6-3.4,0.6-5.7v-0.5V6.4H40.1L40.1,6.4z M46.1,5.7C46.2,5.7,46.2,5.7,46.1,5.7
		c0,0.9-0.1,1.5-0.2,2.2l-0.1,0.4h1.7l0.5-2h1.2c0.1,0,0.1,0,0.1,0.1L48.8,8v0.2h1.4v1.3h-4.6c-0.1,0.4-0.2,0.7-0.3,1l-0.1,0.3h5.4
		V12h-1.9c0.8,1.2,1.7,1.8,2.1,2h0.1v1.4c0,0.1-0.1,0.1-0.3,0c-0.6-0.3-1.1-0.7-1.6-1.1l-0.3-0.2l-0.1,2.4h1.7v6.1h-4.4l-0.4-1.3
		c0-0.1,0-0.1,0-0.1l0,0h3.2v-3.4h-7c0,0-0.1,0-0.1-0.1l0,0l0.1-2.4H43c0,0,0.1,0,0.1,0.1l0,0L43,16.5h4.1v-1.9h-5.2
		c-0.4,0.3-0.9,0.6-1.3,0.8c-0.2,0.1-0.3,0.1-0.3,0l0,0V14c0.8-0.5,1.5-1.1,2.1-1.9l0.2-0.2h-2.2v-1.3h2.9c0.2-0.3,0.3-0.7,0.4-1.1
		l0.3,0h-3.1V8.2h1.3l-0.5-1.8c0-0.1,0-0.1,0-0.1l0,0h1.2l0.5,1.9h0.8c0.2-0.6,0.3-1.3,0.4-2.1l0.1-0.5L46.1,5.7L46.1,5.7z
		 M99.3,5.7v6.6h3.8v10h-9.5v-1.5h7.8v-2.9h-7.2v-1.5h7.2v-2.7h-7.7v-1.5h3.8V5.7H99.3L99.3,5.7z M48.1,18.9v1.4h-7.6v-1.4H48.1z
		 M81.8,10h-7.7c0.5,2.2,1.5,4.1,2.8,5.8c0.3,0.4,0.7,0.8,1,1.1c0.1-0.1,0.3-0.3,0.4-0.4C80,14.7,81.2,12.5,81.8,10L81.8,10z
		 M38.7,12.4h-1.9v3.3h1.9V12.4z M46.9,12h-2.5c-0.3,0.5-0.5,0.9-0.8,1.2l-0.2,0.3H48C47.6,13.1,47.3,12.6,46.9,12z M65.6,7.9H62v5
		h3.7L65.6,7.9L65.6,7.9z M38.7,7.8h-1.9v3.3h1.9V7.8L38.7,7.8z M95.4,7l1.3,3.8c0,0,0,0.1-0.1,0.1l0,0H95l-1.3-3.8
		c0,0,0-0.1,0.1-0.1l0,0C93.8,7,95.4,7,95.4,7z M103.2,7C103.3,7,103.3,7,103.2,7L103.2,7l-1.2,3.9h-1.6c0,0-0.1,0-0.1-0.1l0,0
		l1.3-3.8C101.6,7,103.2,7,103.2,7z M54.3,6l2.1,3.2v0.1l0,0h-1.7l-2.1-3.2V6l0,0L54.3,6L54.3,6z"/>
	<path class="st1" d="M22.4,2.2H5c-0.2,0-0.4,0.2-0.5,0.4l-4,22.8C0.4,25.7,0.6,26,0.9,26h9.6l0.8-0.2h4.5l0.6,0.2h7.4
		c0.2,0,0.4-0.2,0.5-0.4l3.3-18.7L22.4,2.2z"/>
	<path class="st2" d="M22.1,6.9h5.4l-5.2-4.6l-0.7,4C21.6,6.6,21.8,6.9,22.1,6.9"/>
	<path class="st3" d="M14.6,3.2l-1,5.5H4.1l4.1,4.5h4.6L10.5,26h5.8l2.3-12.8h6.9h0.2L14.6,3.2z"/>
</g>
</svg>
