<?xml version="1.0" standalone="no"?><!DOCTYPE svg PUBLIC "-//W3C//DTD SVG 1.1//EN" "http://www.w3.org/Graphics/SVG/1.1/DTD/svg11.dtd"><svg t="1705761944559" class="icon" viewBox="0 0 1024 1024" version="1.1" xmlns="http://www.w3.org/2000/svg" p-id="2021" xmlns:xlink="http://www.w3.org/1999/xlink" width="200" height="200"><path d="M515.328 906.24a118.1696 118.1696 0 0 1-82.6368-33.3824L332.8 776.0896H257.4848a184.0128 184.0128 0 0 1-183.808-183.808v-291.84a184.0128 184.0128 0 0 1 183.808-183.808h517.12a184.0128 184.0128 0 0 1 183.808 183.808v291.84a184.0128 184.0128 0 0 1-183.808 183.808h-72.4992l-106.0352 98.2528a118.3232 118.3232 0 0 1-80.7424 31.8976zM257.4848 178.3296a122.5216 122.5216 0 0 0-122.368 122.368v291.84a122.5216 122.5216 0 0 0 122.368 122.368h87.7568a30.72 30.72 0 0 1 21.3504 8.6528l108.8 104.8576a57.4976 57.4976 0 0 0 78.9504 0.8704l114.8416-106.4448a30.72 30.72 0 0 1 20.8896-8.192h84.5312a122.5216 122.5216 0 0 0 122.368-122.368v-291.84a122.5216 122.5216 0 0 0-122.368-122.368z" fill="#00A0E9" p-id="2022"></path><path d="M729.2416 382.1056H313.088a30.72 30.72 0 1 1 0-61.44h416.1536a30.72 30.72 0 1 1 0 61.44zM555.1104 575.4368H318.208a30.72 30.72 0 1 1 0-61.44h236.9024a30.72 30.72 0 0 1 0 61.44z" fill="#F39800" p-id="2023"></path></svg>