<?xml version="1.0" standalone="no"?><!DOCTYPE svg PUBLIC "-//W3C//DTD SVG 1.1//EN" "http://www.w3.org/Graphics/SVG/1.1/DTD/svg11.dtd"><svg t="1705761949685" class="icon" viewBox="0 0 1024 1024" version="1.1" xmlns="http://www.w3.org/2000/svg" p-id="2168" xmlns:xlink="http://www.w3.org/1999/xlink" width="200" height="200"><path d="M450.0992 940.8c-31.2832 0-53.76-16.4352-63.4368-46.4384-4.352-13.6192-9.3184-26.9312-14.5408-40.96L368.64 843.776c-6.1952-16.8448-15.36-21.0944-32.768-15.36l-1.6896 0.5632-23.1424 8.2432c-31.3344 11.3664-48.5888 17.6128-67.7888 13.312-21.0944-4.7104-32.8192-19.5072-50.5344-41.8816-5.888-7.424-12.544-15.8208-20.9408-25.856-7.7824-9.216-15.36-18.6368-22.3744-27.7504s-14.336-17.7664-21.4016-26.624c-21.7088-25.6-23.1936-56.0128-4.096-82.944 8.6528-12.1856 16.6912-24.6784 25.1904-37.888l3.072-4.7616c2.7648-4.3008 7.2704-12.4928 5.888-18.7392-1.024-4.7104-5.888-10.24-13.6704-14.9504l-11.8784-7.68a327.68 327.68 0 0 0-30.3616-18.3296c-18.1248-9.2672-46.848-31.9488-35.4304-80.2304q3.2768-14.1312 6.7072-28.2624c6.912-28.8768 14.0288-58.6752 20.48-87.9616 6.9632-32.4096 28.7744-51.712 61.44-54.4768 18.9952-1.5872 38.6048-3.9936 59.8016-7.3216 14.4896-2.304 19.6608-9.3184 17.7664-24.2688l-2.6112-21.9648c-1.3312-11.4688-2.7136-23.296-4.3008-34.7136a62.208 62.208 0 0 1 37.376-68.352l37.5808-17.408c27.0336-12.544 54.9888-25.6 82.3296-38.5024s53.3504-7.9872 75.264 13.824q8.192 8.1408 16.3328 16.384c7.9872 8.0384 16.0256 16.128 24.1664 24.0128 12.0832 11.7248 22.0672 11.5712 34.4064-0.4608 3.8912-3.7888 7.7824-7.9872 11.9296-12.4416a200.2432 200.2432 0 0 1 33.4848-30.72c16.64-11.264 44.4928-19.5072 66.56-10.752a1370.0608 1370.0608 0 0 1 125.1328 58.1632 77.4656 77.4656 0 0 1 28.8768 29.952c0.6656 1.0752 1.2288 2.048 1.792 2.816a30.72 30.72 0 0 1 6.3488 22.4256c-1.024 9.216-1.9456 17.3568-2.7648 24.832-1.5872 14.5408-2.9696 27.0848-4.5568 39.3728-2.7136 21.248 2.9696 25.9584 20.48 28.5696 12.032 1.792 24.0128 3.1232 36.7104 4.5568 8.2432 0.9216 16.4864 1.8432 24.7296 2.8672a60.7232 60.7232 0 0 1 54.784 50.3808c6.6048 30.72 14.0288 62.1568 21.1968 92.4672 2.4576 10.24 5.12 20.48 7.3728 31.1296 7.4752 31.8464-4.4544 58.7264-32.6656 73.7792a179.968 179.968 0 0 0-15.7184 9.8816 204.1344 204.1344 0 0 1-26.0096 15.36 28.2624 28.2624 0 0 0-16.7936 18.176 25.6 25.6 0 0 0 6.8096 21.2992 204.8 204.8 0 0 1 18.4832 27.4432c3.072 5.12 6.0416 10.24 9.0624 14.4384 17.92 25.6 16.9984 54.2208-2.56 78.1312-7.68 9.4208-15.36 18.8928-22.8352 28.3648-20.0192 24.9344-40.6528 50.688-62.9248 74.9568-15.872 17.3056-44.4928 21.9648-64.3584 19.0464a199.9872 199.9872 0 0 1-43.8272-13.312c-5.5296-2.1504-10.752-4.1984-15.872-5.9392-18.8416-6.4-26.368-2.6112-33.3824 16.7424l-5.12 13.7216c-2.3552 6.3488-4.6592 12.6976-6.9632 19.0976-19.4048 54.1184-31.1296 62.2592-89.4976 62.2592h-33.024c-25.1392 0-51.2 0-76.8 0.256z m-3.4816-61.696a17.1008 17.1008 0 0 0 3.9936 0.256c26.0608-0.4608 52.4288-0.3584 77.8752-0.256h32.768c9.1648 0 18.5856 0 23.6544-0.512 2.048-4.4544 5.12-12.8512 8.0384-21.0432 2.304-6.5024 4.7104-13.0048 7.0656-19.456l5.12-13.568c18.4832-51.2 59.904-71.2192 110.848-54.016 6.4512 2.2016 12.6464 4.6592 18.6368 7.0144a152.832 152.832 0 0 0 30.4128 9.6768 28.416 28.416 0 0 0 11.3664-1.28c20.48-22.3232 39.936-46.7456 58.88-70.4 7.7312-9.6256 15.36-19.2512 23.2448-28.7744q0.8704-1.0752 1.2288-1.6896c-0.3072-0.512-0.768-1.3312-1.4848-2.4064-4.3008-6.1952-7.936-12.288-11.4688-18.2272a156.3648 156.3648 0 0 0-12.9024-19.456 86.528 86.528 0 0 1-19.8144-73.6768 89.2416 89.2416 0 0 1 50.3296-60.5184 150.3744 150.3744 0 0 0 18.2272-11.1104c6.5536-4.4032 13.3632-8.9088 21.0432-13.056a16.1792 16.1792 0 0 0 2.4064-1.4848 24.7296 24.7296 0 0 0-0.6144-4.0448c-2.4576-10.24-4.864-20.48-7.3216-30.72-7.2704-30.72-14.7968-62.3104-21.5552-93.7472a19.968 19.968 0 0 0-0.5632-2.1504 18.2784 18.2784 0 0 0-1.8944-0.3584c-7.8848-0.9728-15.8208-1.8944-23.7568-2.7648-12.6976-1.4336-25.6-2.8672-38.912-4.8128-52.1216-7.7824-79.1552-44.0832-72.3456-97.28 1.4848-11.7248 2.816-23.4496 4.4032-38.2464 0.512-4.4032 1.024-9.0624 1.5872-14.0288a33.7408 33.7408 0 0 0-3.84-5.12c-42.2912-22.0672-80.5888-39.8848-117.0432-54.528a27.136 27.136 0 0 0-10.8032 3.7888 146.3296 146.3296 0 0 0-22.9376 21.76c-4.5056 4.8128-9.1136 9.7792-14.1312 14.6944-35.84 35.1232-84.224 35.328-120.064 0.6144-8.448-8.192-16.7424-16.5376-25.0368-24.8832-5.12-5.12-10.5984-10.7008-15.9744-15.9744a18.2272 18.2272 0 0 0-3.584-2.9184 14.9504 14.9504 0 0 0-2.4064 0.9216C381.696 148.48 353.5872 161.3312 326.4 174.08q-18.7392 8.6016-37.4272 17.3568a16.2304 16.2304 0 0 0-2.6624 1.4848 21.8112 21.8112 0 0 0 0 2.7136c1.6896 12.0832 3.1232 24.2176 4.5056 35.84 0.8192 7.168 1.6896 14.336 2.56 21.504 6.144 47.9232-21.6576 84.9408-69.0176 92.5696-22.7328 3.584-43.7248 6.144-64.256 7.8848a16.5376 16.5376 0 0 0-4.7104 0.8704 18.2272 18.2272 0 0 0-1.7408 5.12C147.1488 389.5808 139.9808 419.84 133.12 448.9216q-3.3792 14.08-6.7072 28.1088a19.3024 19.3024 0 0 0-0.8192 8.448 14.7968 14.7968 0 0 0 4.3008 2.8672 389.12 389.12 0 0 1 35.84 21.6576c3.6864 2.4064 7.424 5.12 11.1616 7.2192 27.8528 17.6128 37.5296 38.912 40.96 53.6576s3.3792 37.888-14.2848 65.28l-3.0208 4.7104c-8.4992 13.2096-17.3056 26.88-26.7776 40.192a14.3872 14.3872 0 0 0-1.9456 3.3792 21.248 21.248 0 0 0 2.9696 4.4032c7.936 9.3696 15.36 18.9952 22.8352 28.3136s13.9776 17.7664 21.0944 26.2144c9.0112 10.7008 16.2816 19.8656 22.0672 27.2384s12.9024 16.2304 16.5376 19.712a303.5648 303.5648 0 0 0 32.7168-10.752l23.3984-8.3456 2.304-0.768c49.5104-16.6912 92.7232 3.7888 110.4896 52.0704l3.4816 9.3696c5.12 14.1312 10.6496 28.7744 15.36 43.6736a17.2032 17.2032 0 0 0 1.536 3.5328z m330.3424-93.44z" fill="#00A0E9" p-id="2169"></path><path d="M515.5328 668.3648h-1.8944c-92.16-0.9728-164.5056-73.0112-164.3008-163.84a165.9392 165.9392 0 0 1 168.96-165.6832 167.2192 167.2192 0 0 1 164.4544 167.2192 160.5632 160.5632 0 0 1-48.384 114.2784 167.8848 167.8848 0 0 1-118.8352 48.0256z m0-268.288a104.5504 104.5504 0 0 0-104.9088 104.448c0 56.7808 45.312 101.7856 103.5264 102.4a107.52 107.52 0 0 0 76.8-30.72 99.5328 99.5328 0 0 0 30.0544-70.8608A104.2944 104.2944 0 0 0 517.12 400.128z" fill="#F39800" p-id="2170"></path></svg>